<?xml version="1.0" encoding="UTF-8" standalone="no"?>
<!DOCTYPE svg PUBLIC "-//W3C//DTD SVG 1.1//EN"
 "http://www.w3.org/Graphics/SVG/1.1/DTD/svg11.dtd">
<!-- Generated by graphviz version 12.1.1 (20240910.0053)
 -->
<!-- Pages: 1 -->
<svg width="1754pt" height="1395pt"
 viewBox="0.00 0.00 1754.07 1395.00" xmlns="http://www.w3.org/2000/svg" xmlns:xlink="http://www.w3.org/1999/xlink">
<g id="graph0" class="graph" transform="scale(1 1) rotate(0) translate(4 1391)">
<polygon fill="white" stroke="none" points="-4,4 -4,-1391 1750.07,-1391 1750.07,4 -4,4"/>
<g id="clust1" class="cluster">
<title>cluster&#45;nid&#45;02</title>
<polygon fill="none" stroke="#cccccc" points="8,-310 8,-384 421.79,-384 421.79,-310 8,-310"/>
</g>
<g id="clust2" class="cluster">
<title>cluster&#45;nid&#45;03</title>
<polygon fill="none" stroke="#cccccc" points="8,-220 8,-294 421.79,-294 421.79,-220 8,-220"/>
</g>
<g id="clust5" class="cluster">
<title>cluster&#45;nid&#45;06</title>
<polygon fill="none" stroke="#cccccc" points="343.08,-65 343.08,-139 430.5,-139 430.5,-65 343.08,-65"/>
</g>
<g id="clust6" class="cluster">
<title>cluster&#45;nid&#45;07</title>
<polygon fill="none" stroke="#cccccc" points="1079,-1288 1079,-1362 1450.65,-1362 1450.65,-1288 1079,-1288"/>
</g>
<g id="clust7" class="cluster">
<title>cluster&#45;nid&#45;08</title>
<polygon fill="none" stroke="#cccccc" points="1371.95,-725 1371.95,-799 1738.07,-799 1738.07,-725 1371.95,-725"/>
</g>
<g id="clust8" class="cluster">
<title>cluster&#45;nid&#45;09</title>
<polygon fill="none" stroke="#cccccc" points="1371.95,-1065 1371.95,-1139 1738.07,-1139 1738.07,-1065 1371.95,-1065"/>
</g>
<g id="clust18" class="cluster">
<title>cluster&#45;nid&#45;12&#45;out</title>
<polygon fill="none" stroke="#cccccc" points="308.17,-1086 308.17,-1176 465.42,-1176 465.42,-1086 308.17,-1086"/>
</g>
<g id="clust20" class="cluster">
<title>cluster&#45;nid&#45;13&#45;out</title>
<polygon fill="none" stroke="#cccccc" points="308.17,-1191 308.17,-1281 465.42,-1281 465.42,-1191 308.17,-1191"/>
</g>
<g id="clust21" class="cluster">
<title>cluster&#45;nid&#45;14&#45;in</title>
<polygon fill="none" stroke="#cccccc" points="682.34,-498 682.34,-588 860.59,-588 860.59,-498 682.34,-498"/>
</g>
<g id="clust24" class="cluster">
<title>cluster&#45;nid&#45;16&#45;in</title>
<polygon fill="none" stroke="#cccccc" points="681.59,-302 681.59,-392 861.34,-392 861.34,-302 681.59,-302"/>
</g>
<g id="clust26" class="cluster">
<title>cluster&#45;nid&#45;17&#45;in</title>
<polygon fill="none" stroke="#cccccc" points="682.34,-106 682.34,-196 860.59,-196 860.59,-106 682.34,-106"/>
</g>
<g id="clust29" class="cluster">
<title>cluster&#45;nid&#45;18&#45;out</title>
<polygon fill="none" stroke="#cccccc" points="298.42,-1289 298.42,-1379 475.17,-1379 475.17,-1289 298.42,-1289"/>
</g>
<g id="clust31" class="cluster">
<title>cluster&#45;nid&#45;19&#45;out</title>
<polygon fill="none" stroke="#cccccc" points="298.42,-587 298.42,-677 475.17,-677 475.17,-587 298.42,-587"/>
</g>
<g id="clust33" class="cluster">
<title>cluster&#45;nid&#45;1a&#45;out</title>
<polygon fill="none" stroke="#cccccc" points="298.42,-973 298.42,-1063 475.17,-1063 475.17,-973 298.42,-973"/>
</g>
<g id="clust34" class="cluster">
<title>cluster&#45;nid&#45;1b&#45;in</title>
<polygon fill="none" stroke="#cccccc" points="683.09,-204 683.09,-294 1149,-294 1149,-204 683.09,-204"/>
</g>
<g id="clust35" class="cluster">
<title>cluster&#45;nid&#45;1b&#45;out</title>
<polygon fill="none" stroke="#cccccc" points="16.71,-846 16.71,-936 475.17,-936 475.17,-846 16.71,-846"/>
</g>
<g id="clust38" class="cluster">
<title>cluster&#45;nid&#45;1d&#45;out</title>
<polygon fill="none" stroke="#cccccc" points="295.42,-689 295.42,-779 478.17,-779 478.17,-689 295.42,-689"/>
</g>
<g id="clust39" class="cluster">
<title>cluster&#45;nid&#45;1e&#45;in</title>
<polygon fill="none" stroke="#cccccc" points="683.09,-8 683.09,-98 859.84,-98 859.84,-8 683.09,-8"/>
</g>
<g id="clust43" class="cluster">
<title>cluster&#45;nid&#45;21&#45;in</title>
<polygon fill="none" stroke="#cccccc" points="685.72,-400 685.72,-490 857.22,-490 857.22,-400 685.72,-400"/>
</g>
<g id="clust45" class="cluster">
<title>cluster&#45;nid&#45;22</title>
<polygon fill="none" stroke="#cccccc" points="678.17,-936 678.17,-1268 1163.24,-1268 1163.24,-936 678.17,-936"/>
</g>
<g id="clust46" class="cluster">
<title>cluster&#45;nid&#45;23</title>
<polygon fill="none" stroke="#cccccc" points="678.17,-596 678.17,-928 1163.24,-928 1163.24,-596 678.17,-596"/>
</g>
<g id="clust47" class="cluster">
<title>cluster&#45;nid&#45;24</title>
<polygon fill="none" stroke="#cccccc" points="711.11,-1276 711.11,-1374 831.83,-1374 831.83,-1276 711.11,-1276"/>
</g>
<!-- nid&#45;02 -->
<g id="node1" class="node">
<title>nid&#45;02</title>
<ellipse fill="none" stroke="blue" cx="51.71" cy="-347" rx="35.71" ry="28.99"/>
<text text-anchor="middle" x="51.71" y="-350.2" font-family="Times,serif" font-size="14.00">0x02</text>
<text text-anchor="middle" x="51.71" y="-333.7" font-family="Times,serif" font-size="14.00">Stereo</text>
</g>
<!-- nid&#45;02&#45;ampout -->
<g id="node2" class="node">
<title>nid&#45;02&#45;ampout</title>
<polygon fill="none" stroke="#0000ff" points="413.79,-347 373.29,-365 373.29,-329 413.79,-347"/>
</g>
<!-- nid&#45;02&#45;&gt;nid&#45;02&#45;ampout -->
<g id="edge1" class="edge">
<title>nid&#45;02&#45;&gt;nid&#45;02&#45;ampout</title>
<path fill="none" stroke="#0000ff" d="M87.73,-347C157.56,-347 312.12,-347 366.45,-347"/>
<polygon fill="#0000ff" stroke="#0000ff" points="366.34,-348.75 371.34,-347 366.34,-345.25 366.34,-348.75"/>
</g>
<!-- nid&#45;14&#45;in -->
<g id="node17" class="node">
<title>nid&#45;14&#45;in</title>
<polygon fill="none" stroke="green" points="852.59,-580 690.34,-580 690.34,-506 852.59,-506 852.59,-580"/>
<text text-anchor="middle" x="771.47" y="-562.7" font-family="Times,serif" font-size="14.00">0x14</text>
<text text-anchor="middle" x="771.47" y="-546.2" font-family="Times,serif" font-size="14.00">[Fixed] Speaker at Int N/A</text>
<text text-anchor="middle" x="771.47" y="-529.7" font-family="Times,serif" font-size="14.00">Stereo</text>
<text text-anchor="middle" x="771.47" y="-513.2" font-family="Times,serif" font-size="14.00">OUT EAPD Detect</text>
</g>
<!-- nid&#45;02&#45;ampout&#45;&gt;nid&#45;14&#45;in -->
<g id="edge9" class="edge">
<title>nid&#45;02&#45;ampout&#45;&gt;nid&#45;14&#45;in</title>
<path fill="none" stroke="#333333" d="M400.09,-353.3C443.48,-375.52 591.89,-451.54 687.16,-500.33"/>
<polygon fill="#333333" stroke="#333333" points="685.51,-503.42 696.01,-504.86 688.7,-497.19 685.51,-503.42"/>
</g>
<!-- nid&#45;16&#45;in -->
<g id="node18" class="node">
<title>nid&#45;16&#45;in</title>
<polygon fill="none" stroke="green" points="853.34,-384 689.59,-384 689.59,-310 853.34,-310 853.34,-384"/>
<text text-anchor="middle" x="771.47" y="-366.7" font-family="Times,serif" font-size="14.00">0x16</text>
<text text-anchor="middle" x="771.47" y="-350.2" font-family="Times,serif" font-size="14.00">[N/A] Line Out at Ext N/A</text>
<text text-anchor="middle" x="771.47" y="-333.7" font-family="Times,serif" font-size="14.00">Stereo</text>
<text text-anchor="middle" x="771.47" y="-317.2" font-family="Times,serif" font-size="14.00">OUT HP Detect</text>
</g>
<!-- nid&#45;02&#45;ampout&#45;&gt;nid&#45;16&#45;in -->
<g id="edge10" class="edge">
<title>nid&#45;02&#45;ampout&#45;&gt;nid&#45;16&#45;in</title>
<path fill="none" stroke="#333333" d="M415.01,-347C469.02,-347 591.95,-347 678.04,-347"/>
<polygon fill="#333333" stroke="#333333" points="677.89,-350.5 687.89,-347 677.89,-343.5 677.89,-350.5"/>
</g>
<!-- nid&#45;17&#45;in -->
<g id="node19" class="node">
<title>nid&#45;17&#45;in</title>
<polygon fill="none" stroke="green" points="852.59,-188 690.34,-188 690.34,-114 852.59,-114 852.59,-188"/>
<text text-anchor="middle" x="771.47" y="-170.7" font-family="Times,serif" font-size="14.00">0x17</text>
<text text-anchor="middle" x="771.47" y="-154.2" font-family="Times,serif" font-size="14.00">[Fixed] Speaker at Int N/A</text>
<text text-anchor="middle" x="771.47" y="-137.7" font-family="Times,serif" font-size="14.00">Stereo</text>
<text text-anchor="middle" x="771.47" y="-121.2" font-family="Times,serif" font-size="14.00">OUT HP Detect</text>
</g>
<!-- nid&#45;02&#45;ampout&#45;&gt;nid&#45;17&#45;in -->
<g id="edge12" class="edge">
<title>nid&#45;02&#45;ampout&#45;&gt;nid&#45;17&#45;in</title>
<path fill="none" stroke="#333333" d="M400.09,-340.7C443.48,-318.48 591.89,-242.46 687.16,-193.67"/>
<polygon fill="#333333" stroke="#333333" points="688.7,-196.81 696.01,-189.14 685.51,-190.58 688.7,-196.81"/>
</g>
<!-- nid&#45;1b&#45;in -->
<g id="node23" class="node">
<title>nid&#45;1b&#45;in</title>
<polygon fill="none" stroke="green" points="851.84,-286 691.09,-286 691.09,-212 851.84,-212 851.84,-286"/>
<text text-anchor="middle" x="771.47" y="-268.7" font-family="Times,serif" font-size="14.00">0x1b</text>
<text text-anchor="middle" x="771.47" y="-252.2" font-family="Times,serif" font-size="14.00">[N/A] Speaker at Ext Rear</text>
<text text-anchor="middle" x="771.47" y="-235.7" font-family="Times,serif" font-size="14.00">Stereo</text>
<text text-anchor="middle" x="771.47" y="-219.2" font-family="Times,serif" font-size="14.00">IN OUT EAPD Detect</text>
</g>
<!-- nid&#45;02&#45;ampout&#45;&gt;nid&#45;1b&#45;in -->
<g id="edge17" class="edge">
<title>nid&#45;02&#45;ampout&#45;&gt;nid&#45;1b&#45;in</title>
<path fill="none" stroke="#333333" d="M404.98,-342.6C452.43,-330.45 587.8,-295.78 679.78,-272.22"/>
<polygon fill="#333333" stroke="#333333" points="680.49,-275.66 689.31,-269.78 678.75,-268.87 680.49,-275.66"/>
</g>
<!-- nid&#45;21&#45;in -->
<g id="node29" class="node">
<title>nid&#45;21&#45;in</title>
<polygon fill="none" stroke="green" points="849.22,-482 693.72,-482 693.72,-408 849.22,-408 849.22,-482"/>
<text text-anchor="middle" x="771.47" y="-464.7" font-family="Times,serif" font-size="14.00">0x21</text>
<text text-anchor="middle" x="771.47" y="-448.2" font-family="Times,serif" font-size="14.00">[Jack] HP Out at Ext Left</text>
<text text-anchor="middle" x="771.47" y="-431.7" font-family="Times,serif" font-size="14.00">Stereo</text>
<text text-anchor="middle" x="771.47" y="-415.2" font-family="Times,serif" font-size="14.00">OUT HP EAPD Detect</text>
</g>
<!-- nid&#45;02&#45;ampout&#45;&gt;nid&#45;21&#45;in -->
<g id="edge20" class="edge">
<title>nid&#45;02&#45;ampout&#45;&gt;nid&#45;21&#45;in</title>
<path fill="none" stroke="gray" stroke-dasharray="5,2" d="M404.98,-351.4C452.91,-363.68 590.6,-398.94 682.61,-422.5"/>
<polygon fill="gray" stroke="gray" points="681.58,-425.85 692.13,-424.94 683.31,-419.07 681.58,-425.85"/>
</g>
<!-- nid&#45;03 -->
<g id="node3" class="node">
<title>nid&#45;03</title>
<ellipse fill="none" stroke="blue" cx="51.71" cy="-257" rx="35.71" ry="28.99"/>
<text text-anchor="middle" x="51.71" y="-260.2" font-family="Times,serif" font-size="14.00">0x03</text>
<text text-anchor="middle" x="51.71" y="-243.7" font-family="Times,serif" font-size="14.00">Stereo</text>
</g>
<!-- nid&#45;03&#45;ampout -->
<g id="node4" class="node">
<title>nid&#45;03&#45;ampout</title>
<polygon fill="none" stroke="#0000ff" points="413.79,-257 373.29,-275 373.29,-239 413.79,-257"/>
</g>
<!-- nid&#45;03&#45;&gt;nid&#45;03&#45;ampout -->
<g id="edge2" class="edge">
<title>nid&#45;03&#45;&gt;nid&#45;03&#45;ampout</title>
<path fill="none" stroke="#0000ff" d="M87.73,-257C157.56,-257 312.12,-257 366.45,-257"/>
<polygon fill="#0000ff" stroke="#0000ff" points="366.34,-258.75 371.34,-257 366.34,-255.25 366.34,-258.75"/>
</g>
<!-- nid&#45;03&#45;ampout&#45;&gt;nid&#45;16&#45;in -->
<g id="edge11" class="edge">
<title>nid&#45;03&#45;ampout&#45;&gt;nid&#45;16&#45;in</title>
<path fill="none" stroke="gray" stroke-dasharray="5,2" d="M405.48,-261.16C453.16,-272.37 586.88,-303.82 678.51,-325.37"/>
<polygon fill="gray" stroke="gray" points="677.46,-328.72 687.99,-327.6 679.06,-321.91 677.46,-328.72"/>
</g>
<!-- nid&#45;03&#45;ampout&#45;&gt;nid&#45;17&#45;in -->
<g id="edge13" class="edge">
<title>nid&#45;03&#45;ampout&#45;&gt;nid&#45;17&#45;in</title>
<path fill="none" stroke="gray" stroke-dasharray="5,2" d="M404.48,-252.38C451.34,-239.4 586.73,-201.9 679.02,-176.33"/>
<polygon fill="gray" stroke="gray" points="679.89,-179.72 688.6,-173.68 678.03,-172.97 679.89,-179.72"/>
</g>
<!-- nid&#45;03&#45;ampout&#45;&gt;nid&#45;1b&#45;in -->
<g id="edge18" class="edge">
<title>nid&#45;03&#45;ampout&#45;&gt;nid&#45;1b&#45;in</title>
<path fill="none" stroke="gray" stroke-dasharray="5,2" d="M413.79,-256.46C467.41,-255.34 592.47,-252.72 679.26,-250.91"/>
<polygon fill="gray" stroke="gray" points="679.27,-254.41 689.19,-250.7 679.12,-247.41 679.27,-254.41"/>
</g>
<!-- nid&#45;03&#45;ampout&#45;&gt;nid&#45;21&#45;in -->
<g id="edge21" class="edge">
<title>nid&#45;03&#45;ampout&#45;&gt;nid&#45;21&#45;in</title>
<path fill="none" stroke="#333333" d="M400.53,-263.26C444.01,-284.62 589.18,-355.94 684.22,-402.63"/>
<polygon fill="#333333" stroke="#333333" points="682.52,-405.69 693.04,-406.96 685.61,-399.41 682.52,-405.69"/>
</g>
<!-- nid&#45;06 -->
<g id="node5" class="node">
<title>nid&#45;06</title>
<ellipse fill="none" stroke="blue" cx="386.79" cy="-102" rx="35.71" ry="28.99"/>
<text text-anchor="middle" x="386.79" y="-105.2" font-family="Times,serif" font-size="14.00">0x06</text>
<text text-anchor="middle" x="386.79" y="-88.7" font-family="Times,serif" font-size="14.00">Stereo</text>
</g>
<!-- nid&#45;06&#45;&gt;nid&#45;17&#45;in -->
<g id="edge14" class="edge">
<title>nid&#45;06&#45;&gt;nid&#45;17&#45;in</title>
<path fill="none" stroke="gray" stroke-dasharray="5,2" d="M422.43,-106.43C479.8,-113.78 596.39,-128.71 678.78,-139.26"/>
<polygon fill="gray" stroke="gray" points="678.31,-142.73 688.67,-140.53 679.2,-135.78 678.31,-142.73"/>
</g>
<!-- nid&#45;1e&#45;in -->
<g id="node28" class="node">
<title>nid&#45;1e&#45;in</title>
<polygon fill="none" stroke="green" points="851.84,-90 691.09,-90 691.09,-16 851.84,-16 851.84,-90"/>
<text text-anchor="middle" x="771.47" y="-72.7" font-family="Times,serif" font-size="14.00">0x1e</text>
<text text-anchor="middle" x="771.47" y="-56.2" font-family="Times,serif" font-size="14.00">[N/A] Speaker at Ext Rear</text>
<text text-anchor="middle" x="771.47" y="-39.7" font-family="Times,serif" font-size="14.00">Stereo</text>
<text text-anchor="middle" x="771.47" y="-23.2" font-family="Times,serif" font-size="14.00">OUT</text>
</g>
<!-- nid&#45;06&#45;&gt;nid&#45;1e&#45;in -->
<g id="edge19" class="edge">
<title>nid&#45;06&#45;&gt;nid&#45;1e&#45;in</title>
<path fill="none" stroke="#333333" d="M422.43,-97.57C479.98,-90.2 597.1,-75.2 679.54,-64.64"/>
<polygon fill="#333333" stroke="#333333" points="679.95,-68.12 689.43,-63.38 679.07,-61.18 679.95,-68.12"/>
</g>
<!-- nid&#45;07 -->
<g id="node6" class="node">
<title>nid&#45;07</title>
<ellipse fill="none" stroke="red" cx="1406.95" cy="-1325" rx="35.71" ry="28.99"/>
<text text-anchor="middle" x="1406.95" y="-1328.2" font-family="Times,serif" font-size="14.00">0x07</text>
<text text-anchor="middle" x="1406.95" y="-1311.7" font-family="Times,serif" font-size="14.00">Stereo</text>
</g>
<!-- nid&#45;07&#45;ampin -->
<g id="node7" class="node">
<title>nid&#45;07&#45;ampin</title>
<polygon fill="none" stroke="#7e7edc" points="1141,-1325 1100.5,-1343 1100.5,-1307 1141,-1325"/>
</g>
<!-- nid&#45;07&#45;ampin&#45;&gt;nid&#45;07 -->
<g id="edge3" class="edge">
<title>nid&#45;07&#45;ampin&#45;&gt;nid&#45;07</title>
<path fill="none" stroke="#7e7edc" d="M1142.11,-1325C1193.15,-1325 1303.81,-1325 1364.34,-1325"/>
<polygon fill="#7e7edc" stroke="#7e7edc" points="1364.23,-1326.75 1369.23,-1325 1364.23,-1323.25 1364.23,-1326.75"/>
</g>
<!-- nid&#45;24 -->
<g id="node8" class="node">
<title>nid&#45;24</title>
<polygon fill="none" stroke="black" points="823.83,-1366 740.54,-1366 719.11,-1284 802.4,-1284 823.83,-1366"/>
<text text-anchor="middle" x="771.47" y="-1328.2" font-family="Times,serif" font-size="14.00">0x24</text>
<text text-anchor="middle" x="771.47" y="-1311.7" font-family="Times,serif" font-size="14.00">Stereo</text>
</g>
<!-- nid&#45;24&#45;&gt;nid&#45;07&#45;ampin -->
<g id="edge4" class="edge">
<title>nid&#45;24&#45;&gt;nid&#45;07&#45;ampin</title>
<path fill="none" stroke="#333333" d="M813.55,-1325C885.25,-1325 1031.11,-1325 1088.77,-1325"/>
<polygon fill="#333333" stroke="#333333" points="1088.75,-1328.5 1098.75,-1325 1088.75,-1321.5 1088.75,-1328.5"/>
</g>
<!-- nid&#45;08 -->
<g id="node9" class="node">
<title>nid&#45;08</title>
<ellipse fill="none" stroke="red" cx="1694.36" cy="-762" rx="35.71" ry="28.99"/>
<text text-anchor="middle" x="1694.36" y="-765.2" font-family="Times,serif" font-size="14.00">0x08</text>
<text text-anchor="middle" x="1694.36" y="-748.7" font-family="Times,serif" font-size="14.00">Stereo</text>
</g>
<!-- nid&#45;08&#45;ampin -->
<g id="node10" class="node">
<title>nid&#45;08&#45;ampin</title>
<polygon fill="none" stroke="#7e7edc" points="1433.95,-762 1393.45,-780 1393.45,-744 1433.95,-762"/>
</g>
<!-- nid&#45;08&#45;ampin&#45;&gt;nid&#45;08 -->
<g id="edge5" class="edge">
<title>nid&#45;08&#45;ampin&#45;&gt;nid&#45;08</title>
<path fill="none" stroke="#7e7edc" d="M1435.05,-762C1485.27,-762 1593.01,-762 1652.25,-762"/>
<polygon fill="#7e7edc" stroke="#7e7edc" points="1652.01,-763.75 1657.01,-762 1652.01,-760.25 1652.01,-763.75"/>
</g>
<!-- nid&#45;23 -->
<g id="node11" class="node">
<title>nid&#45;23</title>
<polygon fill="none" stroke="black" points="1155.24,-762 1134.62,-795.48 1093.39,-795.48 1072.77,-762 1093.39,-728.52 1134.62,-728.52 1155.24,-762"/>
<text text-anchor="middle" x="1114" y="-765.2" font-family="Times,serif" font-size="14.00">0x23</text>
<text text-anchor="middle" x="1114" y="-748.7" font-family="Times,serif" font-size="14.00">Stereo</text>
</g>
<!-- nid&#45;23&#45;&gt;nid&#45;08&#45;ampin -->
<g id="edge6" class="edge">
<title>nid&#45;23&#45;&gt;nid&#45;08&#45;ampin</title>
<path fill="none" stroke="#333333" d="M1155.76,-762C1217.19,-762 1331.62,-762 1381.57,-762"/>
<polygon fill="#333333" stroke="#333333" points="1381.56,-765.5 1391.56,-762 1381.56,-758.5 1381.56,-765.5"/>
</g>
<!-- nid&#45;09 -->
<g id="node12" class="node">
<title>nid&#45;09</title>
<ellipse fill="none" stroke="red" cx="1694.36" cy="-1102" rx="35.71" ry="28.99"/>
<text text-anchor="middle" x="1694.36" y="-1105.2" font-family="Times,serif" font-size="14.00">0x09</text>
<text text-anchor="middle" x="1694.36" y="-1088.7" font-family="Times,serif" font-size="14.00">Stereo</text>
</g>
<!-- nid&#45;09&#45;ampin -->
<g id="node13" class="node">
<title>nid&#45;09&#45;ampin</title>
<polygon fill="none" stroke="#c8c8c8" points="1433.95,-1102 1393.45,-1120 1393.45,-1084 1433.95,-1102"/>
</g>
<!-- nid&#45;09&#45;ampin&#45;&gt;nid&#45;09 -->
<g id="edge7" class="edge">
<title>nid&#45;09&#45;ampin&#45;&gt;nid&#45;09</title>
<path fill="none" stroke="#c8c8c8" d="M1435.05,-1102C1485.27,-1102 1593.01,-1102 1652.25,-1102"/>
<polygon fill="#c8c8c8" stroke="#c8c8c8" points="1652.01,-1103.75 1657.01,-1102 1652.01,-1100.25 1652.01,-1103.75"/>
</g>
<!-- nid&#45;22 -->
<g id="node14" class="node">
<title>nid&#45;22</title>
<polygon fill="none" stroke="black" points="1155.24,-1102 1134.62,-1135.48 1093.39,-1135.48 1072.77,-1102 1093.39,-1068.52 1134.62,-1068.52 1155.24,-1102"/>
<text text-anchor="middle" x="1114" y="-1105.2" font-family="Times,serif" font-size="14.00">0x22</text>
<text text-anchor="middle" x="1114" y="-1088.7" font-family="Times,serif" font-size="14.00">Stereo</text>
</g>
<!-- nid&#45;22&#45;&gt;nid&#45;09&#45;ampin -->
<g id="edge8" class="edge">
<title>nid&#45;22&#45;&gt;nid&#45;09&#45;ampin</title>
<path fill="none" stroke="#333333" d="M1155.76,-1102C1217.19,-1102 1331.62,-1102 1381.57,-1102"/>
<polygon fill="#333333" stroke="#333333" points="1381.56,-1105.5 1391.56,-1102 1381.56,-1098.5 1381.56,-1105.5"/>
</g>
<!-- nid&#45;12&#45;out -->
<g id="node15" class="node">
<title>nid&#45;12&#45;out</title>
<polygon fill="none" stroke="green" points="457.42,-1168 316.17,-1168 316.17,-1094 457.42,-1094 457.42,-1168"/>
<text text-anchor="middle" x="386.79" y="-1150.7" font-family="Times,serif" font-size="14.00">0x12</text>
<text text-anchor="middle" x="386.79" y="-1134.2" font-family="Times,serif" font-size="14.00">[Fixed] Mic at Int N/A</text>
<text text-anchor="middle" x="386.79" y="-1117.7" font-family="Times,serif" font-size="14.00">Stereo</text>
<text text-anchor="middle" x="386.79" y="-1101.2" font-family="Times,serif" font-size="14.00">IN</text>
</g>
<!-- nid&#45;12&#45;out&#45;&gt;nid&#45;24 -->
<g id="edge42" class="edge">
<title>nid&#45;12&#45;out&#45;&gt;nid&#45;24</title>
<path fill="none" stroke="gray" stroke-dasharray="5,2" d="M457.54,-1166.36C530.84,-1203.52 644.81,-1261.3 713.09,-1295.91"/>
<polygon fill="gray" stroke="gray" points="711.38,-1298.97 721.88,-1300.37 714.55,-1292.73 711.38,-1298.97"/>
</g>
<!-- nid&#45;23&#45;ampin&#45;18 -->
<g id="node39" class="node">
<title>nid&#45;23&#45;ampin&#45;18</title>
<polygon fill="none" stroke="#c8c8c8" points="856.77,-896 728.82,-920.5 728.82,-871.5 856.77,-896"/>
<text text-anchor="middle" x="771.47" y="-890.95" font-family="Times,serif" font-size="14.00">4 (0x12)</text>
</g>
<!-- nid&#45;12&#45;out&#45;&gt;nid&#45;23&#45;ampin&#45;18 -->
<g id="edge41" class="edge">
<title>nid&#45;12&#45;out&#45;&gt;nid&#45;23&#45;ampin&#45;18</title>
<path fill="none" stroke="#333333" d="M441.03,-1093.54C517.94,-1039.57 653.65,-944.96 678.17,-932 690.77,-925.34 704.88,-919.22 718.2,-913.99"/>
<polygon fill="#333333" stroke="#333333" points="719.17,-917.36 727.26,-910.53 716.67,-910.83 719.17,-917.36"/>
</g>
<!-- nid&#45;13&#45;out -->
<g id="node16" class="node">
<title>nid&#45;13&#45;out</title>
<polygon fill="none" stroke="green" points="457.42,-1273 316.17,-1273 316.17,-1199 457.42,-1199 457.42,-1273"/>
<text text-anchor="middle" x="386.79" y="-1255.7" font-family="Times,serif" font-size="14.00">0x13</text>
<text text-anchor="middle" x="386.79" y="-1239.2" font-family="Times,serif" font-size="14.00">[Fixed] Mic at Int N/A</text>
<text text-anchor="middle" x="386.79" y="-1222.7" font-family="Times,serif" font-size="14.00">Stereo</text>
<text text-anchor="middle" x="386.79" y="-1206.2" font-family="Times,serif" font-size="14.00">IN</text>
</g>
<!-- nid&#45;13&#45;out&#45;&gt;nid&#45;24 -->
<g id="edge43" class="edge">
<title>nid&#45;13&#45;out&#45;&gt;nid&#45;24</title>
<path fill="none" stroke="#333333" d="M457.54,-1252.22C531.87,-1269.51 648.01,-1296.52 715.93,-1312.32"/>
<polygon fill="#333333" stroke="#333333" points="714.81,-1315.65 725.34,-1314.5 716.39,-1308.83 714.81,-1315.65"/>
</g>
<!-- nid&#45;22&#45;ampin&#45;19 -->
<g id="node34" class="node">
<title>nid&#45;22&#45;ampin&#45;19</title>
<polygon fill="none" stroke="#c8c8c8" points="856.77,-1236 728.82,-1260.5 728.82,-1211.5 856.77,-1236"/>
<text text-anchor="middle" x="771.47" y="-1230.95" font-family="Times,serif" font-size="14.00">4 (0x13)</text>
</g>
<!-- nid&#45;13&#45;out&#45;&gt;nid&#45;22&#45;ampin&#45;19 -->
<g id="edge31" class="edge">
<title>nid&#45;13&#45;out&#45;&gt;nid&#45;22&#45;ampin&#45;19</title>
<path fill="none" stroke="#333333" d="M457.54,-1236C532.33,-1236 649.44,-1236 717.18,-1236"/>
<polygon fill="#333333" stroke="#333333" points="716.91,-1239.5 726.91,-1236 716.91,-1232.5 716.91,-1239.5"/>
</g>
<!-- nid&#45;18&#45;out -->
<g id="node20" class="node">
<title>nid&#45;18&#45;out</title>
<polygon fill="none" stroke="green" points="467.17,-1371 306.42,-1371 306.42,-1297 467.17,-1297 467.17,-1371"/>
<text text-anchor="middle" x="386.79" y="-1353.7" font-family="Times,serif" font-size="14.00">0x18</text>
<text text-anchor="middle" x="386.79" y="-1337.2" font-family="Times,serif" font-size="14.00">[N/A] Speaker at Ext Rear</text>
<text text-anchor="middle" x="386.79" y="-1320.7" font-family="Times,serif" font-size="14.00">Stereo</text>
<text text-anchor="middle" x="386.79" y="-1304.2" font-family="Times,serif" font-size="14.00">IN Detect</text>
</g>
<!-- nid&#45;18&#45;out&#45;&gt;nid&#45;24 -->
<g id="edge44" class="edge">
<title>nid&#45;18&#45;out&#45;&gt;nid&#45;24</title>
<path fill="none" stroke="gray" stroke-dasharray="5,2" d="M467.55,-1332.12C542.97,-1330.35 653.95,-1327.74 718.55,-1326.22"/>
<polygon fill="gray" stroke="gray" points="718.24,-1329.73 728.16,-1326 718.08,-1322.73 718.24,-1329.73"/>
</g>
<!-- nid&#45;19&#45;out -->
<g id="node21" class="node">
<title>nid&#45;19&#45;out</title>
<polygon fill="none" stroke="green" points="467.17,-669 306.42,-669 306.42,-595 467.17,-595 467.17,-669"/>
<text text-anchor="middle" x="386.79" y="-651.7" font-family="Times,serif" font-size="14.00">0x19</text>
<text text-anchor="middle" x="386.79" y="-635.2" font-family="Times,serif" font-size="14.00">[N/A] Speaker at Ext Rear</text>
<text text-anchor="middle" x="386.79" y="-618.7" font-family="Times,serif" font-size="14.00">Stereo</text>
<text text-anchor="middle" x="386.79" y="-602.2" font-family="Times,serif" font-size="14.00">IN Detect</text>
</g>
<!-- nid&#45;22&#45;ampin&#45;25 -->
<g id="node30" class="node">
<title>nid&#45;22&#45;ampin&#45;25</title>
<polygon fill="none" stroke="#c8c8c8" points="856.77,-968 728.82,-992.5 728.82,-943.5 856.77,-968"/>
<text text-anchor="middle" x="771.47" y="-962.95" font-family="Times,serif" font-size="14.00">0 (0x19)</text>
</g>
<!-- nid&#45;19&#45;out&#45;&gt;nid&#45;22&#45;ampin&#45;25 -->
<g id="edge27" class="edge">
<title>nid&#45;19&#45;out&#45;&gt;nid&#45;22&#45;ampin&#45;25</title>
<path fill="none" stroke="#333333" d="M457.66,-669.47C464.84,-674.34 471.82,-679.54 478.17,-685 585.26,-777.1 564.12,-848.67 678.17,-932 690,-940.65 704.19,-947.53 717.84,-952.86"/>
<polygon fill="#333333" stroke="#333333" points="716.61,-956.13 727.21,-956.28 719.02,-949.56 716.61,-956.13"/>
</g>
<!-- nid&#45;23&#45;ampin&#45;25 -->
<g id="node35" class="node">
<title>nid&#45;23&#45;ampin&#45;25</title>
<polygon fill="none" stroke="#c8c8c8" points="856.77,-628 728.82,-652.5 728.82,-603.5 856.77,-628"/>
<text text-anchor="middle" x="771.47" y="-622.95" font-family="Times,serif" font-size="14.00">0 (0x19)</text>
</g>
<!-- nid&#45;19&#45;out&#45;&gt;nid&#45;23&#45;ampin&#45;25 -->
<g id="edge37" class="edge">
<title>nid&#45;19&#45;out&#45;&gt;nid&#45;23&#45;ampin&#45;25</title>
<path fill="none" stroke="#333333" d="M467.55,-631.17C542.46,-630.38 652.43,-629.23 717.22,-628.56"/>
<polygon fill="#333333" stroke="#333333" points="716.9,-632.06 726.87,-628.46 716.83,-625.06 716.9,-632.06"/>
</g>
<!-- nid&#45;1a&#45;out -->
<g id="node22" class="node">
<title>nid&#45;1a&#45;out</title>
<polygon fill="none" stroke="green" points="467.17,-1055 306.42,-1055 306.42,-981 467.17,-981 467.17,-1055"/>
<text text-anchor="middle" x="386.79" y="-1037.7" font-family="Times,serif" font-size="14.00">0x1a</text>
<text text-anchor="middle" x="386.79" y="-1021.2" font-family="Times,serif" font-size="14.00">[N/A] Speaker at Ext Rear</text>
<text text-anchor="middle" x="386.79" y="-1004.7" font-family="Times,serif" font-size="14.00">Stereo</text>
<text text-anchor="middle" x="386.79" y="-988.2" font-family="Times,serif" font-size="14.00">IN Detect</text>
</g>
<!-- nid&#45;22&#45;ampin&#45;26 -->
<g id="node31" class="node">
<title>nid&#45;22&#45;ampin&#45;26</title>
<polygon fill="none" stroke="#c8c8c8" points="855.75,-1169 729.33,-1193.5 729.33,-1144.5 855.75,-1169"/>
<text text-anchor="middle" x="771.47" y="-1163.95" font-family="Times,serif" font-size="14.00">1 (0x1a)</text>
</g>
<!-- nid&#45;1a&#45;out&#45;&gt;nid&#45;22&#45;ampin&#45;26 -->
<g id="edge28" class="edge">
<title>nid&#45;1a&#45;out&#45;&gt;nid&#45;22&#45;ampin&#45;26</title>
<path fill="none" stroke="#333333" d="M467.54,-1051.48C525.68,-1075.62 606.49,-1108.64 678.17,-1136 691.09,-1140.93 705.1,-1146.06 718.22,-1150.76"/>
<polygon fill="#333333" stroke="#333333" points="716.96,-1154.02 727.55,-1154.08 719.31,-1147.43 716.96,-1154.02"/>
</g>
<!-- nid&#45;23&#45;ampin&#45;26 -->
<g id="node36" class="node">
<title>nid&#45;23&#45;ampin&#45;26</title>
<polygon fill="none" stroke="#c8c8c8" points="855.75,-829 729.33,-853.5 729.33,-804.5 855.75,-829"/>
<text text-anchor="middle" x="771.47" y="-823.95" font-family="Times,serif" font-size="14.00">1 (0x1a)</text>
</g>
<!-- nid&#45;1a&#45;out&#45;&gt;nid&#45;23&#45;ampin&#45;26 -->
<g id="edge38" class="edge">
<title>nid&#45;1a&#45;out&#45;&gt;nid&#45;23&#45;ampin&#45;26</title>
<path fill="none" stroke="#333333" d="M451.68,-980.62C509.68,-947.47 598.13,-898.9 678.17,-863 691.08,-857.21 705.3,-851.61 718.63,-846.67"/>
<polygon fill="#333333" stroke="#333333" points="719.46,-850.1 727.67,-843.39 717.07,-843.52 719.46,-850.1"/>
</g>
<!-- nid&#45;1b&#45;ampout -->
<g id="node24" class="node">
<title>nid&#45;1b&#45;ampout</title>
<polygon fill="none" stroke="#c8c8c8" points="1141,-249 1100.5,-267 1100.5,-231 1141,-249"/>
</g>
<!-- nid&#45;1b&#45;in&#45;&gt;nid&#45;1b&#45;ampout -->
<g id="edge15" class="edge">
<title>nid&#45;1b&#45;in&#45;&gt;nid&#45;1b&#45;ampout</title>
<path fill="none" stroke="#c8c8c8" d="M852.31,-249C931.78,-249 1048.27,-249 1093.78,-249"/>
<polygon fill="#c8c8c8" stroke="#c8c8c8" points="1093.7,-250.75 1098.7,-249 1093.7,-247.25 1093.7,-250.75"/>
</g>
<!-- nid&#45;1b&#45;out -->
<g id="node25" class="node">
<title>nid&#45;1b&#45;out</title>
<polygon fill="none" stroke="green" points="467.17,-928 306.42,-928 306.42,-854 467.17,-854 467.17,-928"/>
<text text-anchor="middle" x="386.79" y="-910.7" font-family="Times,serif" font-size="14.00">0x1b</text>
<text text-anchor="middle" x="386.79" y="-894.2" font-family="Times,serif" font-size="14.00">[N/A] Speaker at Ext Rear</text>
<text text-anchor="middle" x="386.79" y="-877.7" font-family="Times,serif" font-size="14.00">Stereo</text>
<text text-anchor="middle" x="386.79" y="-861.2" font-family="Times,serif" font-size="14.00">IN OUT EAPD Detect</text>
</g>
<!-- nid&#45;22&#45;ampin&#45;27 -->
<g id="node32" class="node">
<title>nid&#45;22&#45;ampin&#45;27</title>
<polygon fill="none" stroke="#c8c8c8" points="856.77,-1102 728.82,-1126.5 728.82,-1077.5 856.77,-1102"/>
<text text-anchor="middle" x="771.47" y="-1096.95" font-family="Times,serif" font-size="14.00">2 (0x1b)</text>
</g>
<!-- nid&#45;1b&#45;out&#45;&gt;nid&#45;22&#45;ampin&#45;27 -->
<g id="edge29" class="edge">
<title>nid&#45;1b&#45;out&#45;&gt;nid&#45;22&#45;ampin&#45;27</title>
<path fill="none" stroke="#333333" d="M441.28,-928.46C498.15,-967.15 591.64,-1027.56 678.17,-1069 690.64,-1074.97 704.49,-1080.48 717.59,-1085.21"/>
<polygon fill="#333333" stroke="#333333" points="716.35,-1088.48 726.94,-1088.5 718.67,-1081.88 716.35,-1088.48"/>
</g>
<!-- nid&#45;23&#45;ampin&#45;27 -->
<g id="node37" class="node">
<title>nid&#45;23&#45;ampin&#45;27</title>
<polygon fill="none" stroke="#c8c8c8" points="856.77,-762 728.82,-786.5 728.82,-737.5 856.77,-762"/>
<text text-anchor="middle" x="771.47" y="-756.95" font-family="Times,serif" font-size="14.00">2 (0x1b)</text>
</g>
<!-- nid&#45;1b&#45;out&#45;&gt;nid&#45;23&#45;ampin&#45;27 -->
<g id="edge39" class="edge">
<title>nid&#45;1b&#45;out&#45;&gt;nid&#45;23&#45;ampin&#45;27</title>
<path fill="none" stroke="#333333" d="M467.55,-864.11C542.61,-838.81 652.89,-801.64 717.62,-779.82"/>
<polygon fill="#333333" stroke="#333333" points="718.59,-783.18 726.95,-776.67 716.35,-776.55 718.59,-783.18"/>
</g>
<!-- nid&#45;1b&#45;ampin -->
<g id="node26" class="node">
<title>nid&#45;1b&#45;ampin</title>
<polygon fill="none" stroke="#0000ff" points="78.71,-891 38.21,-909 38.21,-873 78.71,-891"/>
</g>
<!-- nid&#45;1b&#45;ampin&#45;&gt;nid&#45;1b&#45;out -->
<g id="edge16" class="edge">
<title>nid&#45;1b&#45;ampin&#45;&gt;nid&#45;1b&#45;out</title>
<path fill="none" stroke="#0000ff" d="M79.68,-891C127.06,-891 227.09,-891 299.95,-891"/>
<polygon fill="#0000ff" stroke="#0000ff" points="299.52,-892.75 304.52,-891 299.52,-889.25 299.52,-892.75"/>
</g>
<!-- nid&#45;1d&#45;out -->
<g id="node27" class="node">
<title>nid&#45;1d&#45;out</title>
<polygon fill="none" stroke="green" points="470.17,-771 303.42,-771 303.42,-697 470.17,-697 470.17,-771"/>
<text text-anchor="middle" x="386.79" y="-753.7" font-family="Times,serif" font-size="14.00">0x1d</text>
<text text-anchor="middle" x="386.79" y="-737.2" font-family="Times,serif" font-size="14.00">[N/A] SPDIF In at Ext N/A</text>
<text text-anchor="middle" x="386.79" y="-720.7" font-family="Times,serif" font-size="14.00">Mono</text>
<text text-anchor="middle" x="386.79" y="-704.2" font-family="Times,serif" font-size="14.00">IN</text>
</g>
<!-- nid&#45;22&#45;ampin&#45;29 -->
<g id="node33" class="node">
<title>nid&#45;22&#45;ampin&#45;29</title>
<polygon fill="none" stroke="#c8c8c8" points="856.77,-1035 728.82,-1059.5 728.82,-1010.5 856.77,-1035"/>
<text text-anchor="middle" x="771.47" y="-1029.95" font-family="Times,serif" font-size="14.00">3 (0x1d)</text>
</g>
<!-- nid&#45;1d&#45;out&#45;&gt;nid&#45;22&#45;ampin&#45;29 -->
<g id="edge30" class="edge">
<title>nid&#45;1d&#45;out&#45;&gt;nid&#45;22&#45;ampin&#45;29</title>
<path fill="none" stroke="#333333" d="M418.96,-771.09C468.54,-827.97 570.77,-936.99 678.17,-1002 690.34,-1009.37 704.42,-1015.45 717.85,-1020.29"/>
<polygon fill="#333333" stroke="#333333" points="716.4,-1023.5 727,-1023.42 718.67,-1016.87 716.4,-1023.5"/>
</g>
<!-- nid&#45;23&#45;ampin&#45;29 -->
<g id="node38" class="node">
<title>nid&#45;23&#45;ampin&#45;29</title>
<polygon fill="none" stroke="#c8c8c8" points="856.77,-695 728.82,-719.5 728.82,-670.5 856.77,-695"/>
<text text-anchor="middle" x="771.47" y="-689.95" font-family="Times,serif" font-size="14.00">3 (0x1d)</text>
</g>
<!-- nid&#45;1d&#45;out&#45;&gt;nid&#45;23&#45;ampin&#45;29 -->
<g id="edge40" class="edge">
<title>nid&#45;1d&#45;out&#45;&gt;nid&#45;23&#45;ampin&#45;29</title>
<path fill="none" stroke="#333333" d="M470.36,-725.59C545.13,-717.97 653.09,-706.96 717.09,-700.44"/>
<polygon fill="#333333" stroke="#333333" points="717.41,-703.93 727,-699.43 716.7,-696.96 717.41,-703.93"/>
</g>
<!-- nid&#45;22&#45;ampin&#45;25&#45;&gt;nid&#45;22 -->
<g id="edge22" class="edge">
<title>nid&#45;22&#45;ampin&#45;25&#45;&gt;nid&#45;22</title>
<path fill="none" stroke="#c8c8c8" d="M801.32,-978.93C818.73,-985.55 841.34,-994.2 861.34,-1002 937.11,-1031.54 1025.38,-1066.82 1074.67,-1086.59"/>
<polygon fill="#c8c8c8" stroke="#c8c8c8" points="1073.78,-1088.12 1079.07,-1088.36 1075.09,-1084.87 1073.78,-1088.12"/>
</g>
<!-- nid&#45;22&#45;ampin&#45;26&#45;&gt;nid&#45;22 -->
<g id="edge23" class="edge">
<title>nid&#45;22&#45;ampin&#45;26&#45;&gt;nid&#45;22</title>
<path fill="none" stroke="#c8c8c8" d="M814.91,-1160.65C880.37,-1147.77 1005.24,-1123.2 1070.65,-1110.33"/>
<polygon fill="#c8c8c8" stroke="#c8c8c8" points="1070.74,-1112.1 1075.3,-1109.42 1070.06,-1108.67 1070.74,-1112.1"/>
</g>
<!-- nid&#45;22&#45;ampin&#45;27&#45;&gt;nid&#45;22 -->
<g id="edge24" class="edge">
<title>nid&#45;22&#45;ampin&#45;27&#45;&gt;nid&#45;22</title>
<path fill="none" stroke="#c8c8c8" d="M859.28,-1102C924.99,-1102 1012.72,-1102 1065.93,-1102"/>
<polygon fill="#c8c8c8" stroke="#c8c8c8" points="1065.73,-1103.75 1070.73,-1102 1065.73,-1100.25 1065.73,-1103.75"/>
</g>
<!-- nid&#45;22&#45;ampin&#45;29&#45;&gt;nid&#45;22 -->
<g id="edge25" class="edge">
<title>nid&#45;22&#45;ampin&#45;29&#45;&gt;nid&#45;22</title>
<path fill="none" stroke="#c8c8c8" d="M815.25,-1043.42C880.75,-1056.3 1005.15,-1080.78 1070.49,-1093.63"/>
<polygon fill="#c8c8c8" stroke="#c8c8c8" points="1069.89,-1095.3 1075.14,-1094.55 1070.57,-1091.87 1069.89,-1095.3"/>
</g>
<!-- nid&#45;22&#45;ampin&#45;19&#45;&gt;nid&#45;22 -->
<g id="edge26" class="edge">
<title>nid&#45;22&#45;ampin&#45;19&#45;&gt;nid&#45;22</title>
<path fill="none" stroke="#c8c8c8" d="M802.17,-1225.19C819.47,-1218.84 841.69,-1210.59 861.34,-1203 937.31,-1173.66 1025.51,-1137.86 1074.73,-1117.72"/>
<polygon fill="#c8c8c8" stroke="#c8c8c8" points="1075.17,-1119.43 1079.13,-1115.92 1073.84,-1116.19 1075.17,-1119.43"/>
</g>
<!-- nid&#45;23&#45;ampin&#45;25&#45;&gt;nid&#45;23 -->
<g id="edge32" class="edge">
<title>nid&#45;23&#45;ampin&#45;25&#45;&gt;nid&#45;23</title>
<path fill="none" stroke="#c8c8c8" d="M801.32,-638.93C818.73,-645.55 841.34,-654.2 861.34,-662 937.11,-691.54 1025.38,-726.82 1074.67,-746.59"/>
<polygon fill="#c8c8c8" stroke="#c8c8c8" points="1073.78,-748.12 1079.07,-748.36 1075.09,-744.87 1073.78,-748.12"/>
</g>
<!-- nid&#45;23&#45;ampin&#45;26&#45;&gt;nid&#45;23 -->
<g id="edge33" class="edge">
<title>nid&#45;23&#45;ampin&#45;26&#45;&gt;nid&#45;23</title>
<path fill="none" stroke="#c8c8c8" d="M814.91,-820.65C880.37,-807.77 1005.24,-783.2 1070.65,-770.33"/>
<polygon fill="#c8c8c8" stroke="#c8c8c8" points="1070.74,-772.1 1075.3,-769.42 1070.06,-768.67 1070.74,-772.1"/>
</g>
<!-- nid&#45;23&#45;ampin&#45;27&#45;&gt;nid&#45;23 -->
<g id="edge34" class="edge">
<title>nid&#45;23&#45;ampin&#45;27&#45;&gt;nid&#45;23</title>
<path fill="none" stroke="#c8c8c8" d="M859.28,-762C924.99,-762 1012.72,-762 1065.93,-762"/>
<polygon fill="#c8c8c8" stroke="#c8c8c8" points="1065.73,-763.75 1070.73,-762 1065.73,-760.25 1065.73,-763.75"/>
</g>
<!-- nid&#45;23&#45;ampin&#45;29&#45;&gt;nid&#45;23 -->
<g id="edge35" class="edge">
<title>nid&#45;23&#45;ampin&#45;29&#45;&gt;nid&#45;23</title>
<path fill="none" stroke="#c8c8c8" d="M815.25,-703.42C880.75,-716.3 1005.15,-740.78 1070.49,-753.63"/>
<polygon fill="#c8c8c8" stroke="#c8c8c8" points="1069.89,-755.3 1075.14,-754.55 1070.57,-751.87 1069.89,-755.3"/>
</g>
<!-- nid&#45;23&#45;ampin&#45;18&#45;&gt;nid&#45;23 -->
<g id="edge36" class="edge">
<title>nid&#45;23&#45;ampin&#45;18&#45;&gt;nid&#45;23</title>
<path fill="none" stroke="#c8c8c8" d="M802.17,-885.19C819.47,-878.84 841.69,-870.59 861.34,-863 937.31,-833.66 1025.51,-797.86 1074.73,-777.72"/>
<polygon fill="#c8c8c8" stroke="#c8c8c8" points="1075.17,-779.43 1079.13,-775.92 1073.84,-776.19 1075.17,-779.43"/>
</g>
</g>
</svg>
