<?xml version="1.0" encoding="UTF-8" standalone="no"?>
<!DOCTYPE svg PUBLIC "-//W3C//DTD SVG 1.1//EN"
 "http://www.w3.org/Graphics/SVG/1.1/DTD/svg11.dtd">
<!-- Generated by graphviz version 8.0.5 (20230430.1635)
 -->
<!-- Pages: 1 -->
<svg width="1774pt" height="1395pt"
 viewBox="0.00 0.00 1774.32 1395.00" xmlns="http://www.w3.org/2000/svg" xmlns:xlink="http://www.w3.org/1999/xlink">
<g id="graph0" class="graph" transform="scale(1 1) rotate(0) translate(4 1391)">
<polygon fill="white" stroke="none" points="-4,4 -4,-1391 1770.32,-1391 1770.32,4 -4,4"/>
<g id="clust1" class="cluster">
<title>cluster&#45;nid&#45;02</title>
<polygon fill="none" stroke="#cccccc" points="8,-310 8,-384 431.92,-384 431.92,-310 8,-310"/>
</g>
<g id="clust2" class="cluster">
<title>cluster&#45;nid&#45;03</title>
<polygon fill="none" stroke="#cccccc" points="8,-220 8,-294 431.92,-294 431.92,-220 8,-220"/>
</g>
<g id="clust5" class="cluster">
<title>cluster&#45;nid&#45;06</title>
<polygon fill="none" stroke="#cccccc" points="353.21,-65 353.21,-139 440.63,-139 440.63,-65 353.21,-65"/>
</g>
<g id="clust6" class="cluster">
<title>cluster&#45;nid&#45;07</title>
<polygon fill="none" stroke="#cccccc" points="1099.25,-1288 1099.25,-1362 1470.9,-1362 1470.9,-1288 1099.25,-1288"/>
</g>
<g id="clust7" class="cluster">
<title>cluster&#45;nid&#45;08</title>
<polygon fill="none" stroke="#cccccc" points="1392.2,-725 1392.2,-799 1758.32,-799 1758.32,-725 1392.2,-725"/>
</g>
<g id="clust8" class="cluster">
<title>cluster&#45;nid&#45;09</title>
<polygon fill="none" stroke="#cccccc" points="1392.2,-1065 1392.2,-1139 1758.32,-1139 1758.32,-1065 1392.2,-1065"/>
</g>
<g id="clust18" class="cluster">
<title>cluster&#45;nid&#45;12&#45;out</title>
<polygon fill="none" stroke="#cccccc" points="318.29,-1086 318.29,-1176 475.54,-1176 475.54,-1086 318.29,-1086"/>
</g>
<g id="clust20" class="cluster">
<title>cluster&#45;nid&#45;13&#45;out</title>
<polygon fill="none" stroke="#cccccc" points="307.04,-1191 307.04,-1281 486.79,-1281 486.79,-1191 307.04,-1191"/>
</g>
<g id="clust21" class="cluster">
<title>cluster&#45;nid&#45;14&#45;in</title>
<polygon fill="none" stroke="#cccccc" points="702.59,-498 702.59,-588 880.84,-588 880.84,-498 702.59,-498"/>
</g>
<g id="clust24" class="cluster">
<title>cluster&#45;nid&#45;16&#45;in</title>
<polygon fill="none" stroke="#cccccc" points="703.34,-302 703.34,-392 880.09,-392 880.09,-302 703.34,-302"/>
</g>
<g id="clust26" class="cluster">
<title>cluster&#45;nid&#45;17&#45;in</title>
<polygon fill="none" stroke="#cccccc" points="702.59,-106 702.59,-196 880.84,-196 880.84,-106 702.59,-106"/>
</g>
<g id="clust29" class="cluster">
<title>cluster&#45;nid&#45;18&#45;out</title>
<polygon fill="none" stroke="#cccccc" points="308.54,-1289 308.54,-1379 485.29,-1379 485.29,-1289 308.54,-1289"/>
</g>
<g id="clust31" class="cluster">
<title>cluster&#45;nid&#45;19&#45;out</title>
<polygon fill="none" stroke="#cccccc" points="308.54,-587 308.54,-677 485.29,-677 485.29,-587 308.54,-587"/>
</g>
<g id="clust33" class="cluster">
<title>cluster&#45;nid&#45;1a&#45;out</title>
<polygon fill="none" stroke="#cccccc" points="308.54,-973 308.54,-1063 485.29,-1063 485.29,-973 308.54,-973"/>
</g>
<g id="clust34" class="cluster">
<title>cluster&#45;nid&#45;1b&#45;in</title>
<polygon fill="none" stroke="#cccccc" points="703.34,-204 703.34,-294 1169.25,-294 1169.25,-204 703.34,-204"/>
</g>
<g id="clust35" class="cluster">
<title>cluster&#45;nid&#45;1b&#45;out</title>
<polygon fill="none" stroke="#cccccc" points="16.71,-846 16.71,-936 485.29,-936 485.29,-846 16.71,-846"/>
</g>
<g id="clust38" class="cluster">
<title>cluster&#45;nid&#45;1d&#45;out</title>
<polygon fill="none" stroke="#cccccc" points="295.42,-689 295.42,-779 498.42,-779 498.42,-689 295.42,-689"/>
</g>
<g id="clust39" class="cluster">
<title>cluster&#45;nid&#45;1e&#45;in</title>
<polygon fill="none" stroke="#cccccc" points="703.34,-8 703.34,-98 880.09,-98 880.09,-8 703.34,-8"/>
</g>
<g id="clust43" class="cluster">
<title>cluster&#45;nid&#45;21&#45;in</title>
<polygon fill="none" stroke="#cccccc" points="705.97,-400 705.97,-490 877.47,-490 877.47,-400 705.97,-400"/>
</g>
<g id="clust45" class="cluster">
<title>cluster&#45;nid&#45;22</title>
<polygon fill="none" stroke="#cccccc" points="698.42,-936 698.42,-1268 1183.49,-1268 1183.49,-936 698.42,-936"/>
</g>
<g id="clust46" class="cluster">
<title>cluster&#45;nid&#45;23</title>
<polygon fill="none" stroke="#cccccc" points="698.42,-596 698.42,-928 1183.49,-928 1183.49,-596 698.42,-596"/>
</g>
<g id="clust47" class="cluster">
<title>cluster&#45;nid&#45;24</title>
<polygon fill="none" stroke="#cccccc" points="731.36,-1276 731.36,-1374 852.08,-1374 852.08,-1276 731.36,-1276"/>
</g>
<!-- nid&#45;02 -->
<g id="node1" class="node">
<title>nid&#45;02</title>
<ellipse fill="none" stroke="blue" cx="51.71" cy="-347" rx="35.71" ry="28.99"/>
<text text-anchor="middle" x="51.71" y="-350.2" font-family="Times,serif" font-size="14.00">0x02</text>
<text text-anchor="middle" x="51.71" y="-333.7" font-family="Times,serif" font-size="14.00">Stereo</text>
</g>
<!-- nid&#45;02&#45;ampout -->
<g id="node2" class="node">
<title>nid&#45;02&#45;ampout</title>
<polygon fill="none" stroke="#0000ff" points="423.92,-347 383.42,-365 383.42,-329 423.92,-347"/>
</g>
<!-- nid&#45;02&#45;&gt;nid&#45;02&#45;ampout -->
<g id="edge1" class="edge">
<title>nid&#45;02&#45;&gt;nid&#45;02&#45;ampout</title>
<path fill="none" stroke="#0000ff" d="M87.83,-347C159.88,-347 322.27,-347 377.29,-347"/>
<polygon fill="#0000ff" stroke="#0000ff" points="377.16,-348.75 382.16,-347 377.16,-345.25 377.16,-348.75"/>
</g>
<!-- nid&#45;14&#45;in -->
<g id="node17" class="node">
<title>nid&#45;14&#45;in</title>
<polygon fill="none" stroke="green" points="872.84,-580 710.59,-580 710.59,-506 872.84,-506 872.84,-580"/>
<text text-anchor="middle" x="791.72" y="-562.7" font-family="Times,serif" font-size="14.00">0x14</text>
<text text-anchor="middle" x="791.72" y="-546.2" font-family="Times,serif" font-size="14.00">[Fixed] Speaker at Int N/A</text>
<text text-anchor="middle" x="791.72" y="-529.7" font-family="Times,serif" font-size="14.00">Stereo</text>
<text text-anchor="middle" x="791.72" y="-513.2" font-family="Times,serif" font-size="14.00">OUT EAPD Detect</text>
</g>
<!-- nid&#45;02&#45;ampout&#45;&gt;nid&#45;14&#45;in -->
<g id="edge9" class="edge">
<title>nid&#45;02&#45;ampout&#45;&gt;nid&#45;14&#45;in</title>
<path fill="none" stroke="#333333" d="M410.54,-353.3C455.21,-375.59 608.34,-452 706.1,-500.78"/>
<polygon fill="#333333" stroke="#333333" points="704.16,-504.22 714.67,-505.55 707.29,-497.96 704.16,-504.22"/>
</g>
<!-- nid&#45;16&#45;in -->
<g id="node18" class="node">
<title>nid&#45;16&#45;in</title>
<polygon fill="none" stroke="green" points="872.09,-384 711.34,-384 711.34,-310 872.09,-310 872.09,-384"/>
<text text-anchor="middle" x="791.72" y="-366.7" font-family="Times,serif" font-size="14.00">0x16</text>
<text text-anchor="middle" x="791.72" y="-350.2" font-family="Times,serif" font-size="14.00">[N/A] Speaker at Ext Rear</text>
<text text-anchor="middle" x="791.72" y="-333.7" font-family="Times,serif" font-size="14.00">Stereo</text>
<text text-anchor="middle" x="791.72" y="-317.2" font-family="Times,serif" font-size="14.00">OUT HP Detect</text>
</g>
<!-- nid&#45;02&#45;ampout&#45;&gt;nid&#45;16&#45;in -->
<g id="edge10" class="edge">
<title>nid&#45;02&#45;ampout&#45;&gt;nid&#45;16&#45;in</title>
<path fill="none" stroke="#333333" d="M424.92,-347C480.74,-347 611.08,-347 700.1,-347"/>
<polygon fill="#333333" stroke="#333333" points="700.01,-350.5 710.01,-347 700.01,-343.5 700.01,-350.5"/>
</g>
<!-- nid&#45;17&#45;in -->
<g id="node19" class="node">
<title>nid&#45;17&#45;in</title>
<polygon fill="none" stroke="green" points="872.84,-188 710.59,-188 710.59,-114 872.84,-114 872.84,-188"/>
<text text-anchor="middle" x="791.72" y="-170.7" font-family="Times,serif" font-size="14.00">0x17</text>
<text text-anchor="middle" x="791.72" y="-154.2" font-family="Times,serif" font-size="14.00">[Fixed] Speaker at Int N/A</text>
<text text-anchor="middle" x="791.72" y="-137.7" font-family="Times,serif" font-size="14.00">Stereo</text>
<text text-anchor="middle" x="791.72" y="-121.2" font-family="Times,serif" font-size="14.00">OUT HP Detect</text>
</g>
<!-- nid&#45;02&#45;ampout&#45;&gt;nid&#45;17&#45;in -->
<g id="edge12" class="edge">
<title>nid&#45;02&#45;ampout&#45;&gt;nid&#45;17&#45;in</title>
<path fill="none" stroke="#333333" d="M410.95,-340.71C430.14,-331.43 467.11,-313.51 498.42,-298 569.06,-263.02 649.01,-222.77 707.41,-193.24"/>
<polygon fill="#333333" stroke="#333333" points="708.62,-196.04 715.96,-188.41 705.46,-189.8 708.62,-196.04"/>
</g>
<!-- nid&#45;1b&#45;in -->
<g id="node23" class="node">
<title>nid&#45;1b&#45;in</title>
<polygon fill="none" stroke="green" points="872.09,-286 711.34,-286 711.34,-212 872.09,-212 872.09,-286"/>
<text text-anchor="middle" x="791.72" y="-268.7" font-family="Times,serif" font-size="14.00">0x1b</text>
<text text-anchor="middle" x="791.72" y="-252.2" font-family="Times,serif" font-size="14.00">[N/A] Speaker at Ext Rear</text>
<text text-anchor="middle" x="791.72" y="-235.7" font-family="Times,serif" font-size="14.00">Stereo</text>
<text text-anchor="middle" x="791.72" y="-219.2" font-family="Times,serif" font-size="14.00">IN OUT EAPD Detect</text>
</g>
<!-- nid&#45;02&#45;ampout&#45;&gt;nid&#45;1b&#45;in -->
<g id="edge17" class="edge">
<title>nid&#45;02&#45;ampout&#45;&gt;nid&#45;1b&#45;in</title>
<path fill="none" stroke="#333333" d="M415.3,-342.66C464.32,-330.43 606.2,-295.04 700.81,-271.43"/>
<polygon fill="#333333" stroke="#333333" points="701.39,-274.64 710.25,-268.83 699.7,-267.85 701.39,-274.64"/>
</g>
<!-- nid&#45;21&#45;in -->
<g id="node29" class="node">
<title>nid&#45;21&#45;in</title>
<polygon fill="none" stroke="green" points="869.47,-482 713.97,-482 713.97,-408 869.47,-408 869.47,-482"/>
<text text-anchor="middle" x="791.72" y="-464.7" font-family="Times,serif" font-size="14.00">0x21</text>
<text text-anchor="middle" x="791.72" y="-448.2" font-family="Times,serif" font-size="14.00">[Jack] HP Out at Ext Left</text>
<text text-anchor="middle" x="791.72" y="-431.7" font-family="Times,serif" font-size="14.00">Stereo</text>
<text text-anchor="middle" x="791.72" y="-415.2" font-family="Times,serif" font-size="14.00">OUT HP EAPD Detect</text>
</g>
<!-- nid&#45;02&#45;ampout&#45;&gt;nid&#45;21&#45;in -->
<g id="edge20" class="edge">
<title>nid&#45;02&#45;ampout&#45;&gt;nid&#45;21&#45;in</title>
<path fill="none" stroke="gray" stroke-dasharray="5,2" d="M415.3,-351.34C464.75,-363.67 608.69,-399.59 703.29,-423.19"/>
<polygon fill="gray" stroke="gray" points="702.16,-426.76 712.71,-425.79 703.86,-419.97 702.16,-426.76"/>
</g>
<!-- nid&#45;03 -->
<g id="node3" class="node">
<title>nid&#45;03</title>
<ellipse fill="none" stroke="blue" cx="51.71" cy="-257" rx="35.71" ry="28.99"/>
<text text-anchor="middle" x="51.71" y="-260.2" font-family="Times,serif" font-size="14.00">0x03</text>
<text text-anchor="middle" x="51.71" y="-243.7" font-family="Times,serif" font-size="14.00">Stereo</text>
</g>
<!-- nid&#45;03&#45;ampout -->
<g id="node4" class="node">
<title>nid&#45;03&#45;ampout</title>
<polygon fill="none" stroke="#0000ff" points="423.92,-257 383.42,-275 383.42,-239 423.92,-257"/>
</g>
<!-- nid&#45;03&#45;&gt;nid&#45;03&#45;ampout -->
<g id="edge2" class="edge">
<title>nid&#45;03&#45;&gt;nid&#45;03&#45;ampout</title>
<path fill="none" stroke="#0000ff" d="M87.83,-257C159.88,-257 322.27,-257 377.29,-257"/>
<polygon fill="#0000ff" stroke="#0000ff" points="377.16,-258.75 382.16,-257 377.16,-255.25 377.16,-258.75"/>
</g>
<!-- nid&#45;03&#45;ampout&#45;&gt;nid&#45;16&#45;in -->
<g id="edge11" class="edge">
<title>nid&#45;03&#45;ampout&#45;&gt;nid&#45;16&#45;in</title>
<path fill="none" stroke="gray" stroke-dasharray="5,2" d="M415.82,-261.1C465.24,-272.43 606.18,-304.72 700.46,-326.32"/>
<polygon fill="gray" stroke="gray" points="699.62,-329.95 710.15,-328.77 701.18,-323.12 699.62,-329.95"/>
</g>
<!-- nid&#45;03&#45;ampout&#45;&gt;nid&#45;17&#45;in -->
<g id="edge13" class="edge">
<title>nid&#45;03&#45;ampout&#45;&gt;nid&#45;17&#45;in</title>
<path fill="none" stroke="gray" stroke-dasharray="5,2" d="M414.8,-252.45C463.13,-239.4 604.69,-201.2 699.63,-175.58"/>
<polygon fill="gray" stroke="gray" points="700.36,-178.74 709.1,-172.75 698.54,-171.98 700.36,-178.74"/>
</g>
<!-- nid&#45;03&#45;ampout&#45;&gt;nid&#45;1b&#45;in -->
<g id="edge18" class="edge">
<title>nid&#45;03&#45;ampout&#45;&gt;nid&#45;1b&#45;in</title>
<path fill="none" stroke="gray" stroke-dasharray="5,2" d="M423.69,-256.48C478.82,-255.35 610.48,-252.67 700.16,-250.84"/>
<polygon fill="gray" stroke="gray" points="700.23,-254.32 710.16,-250.62 700.09,-247.32 700.23,-254.32"/>
</g>
<!-- nid&#45;03&#45;ampout&#45;&gt;nid&#45;21&#45;in -->
<g id="edge21" class="edge">
<title>nid&#45;03&#45;ampout&#45;&gt;nid&#45;21&#45;in</title>
<path fill="none" stroke="#333333" d="M410.99,-263.26C455.84,-284.72 606.1,-356.64 703.62,-403.31"/>
<polygon fill="#333333" stroke="#333333" points="701.94,-406.87 712.47,-408.03 704.96,-400.55 701.94,-406.87"/>
</g>
<!-- nid&#45;06 -->
<g id="node5" class="node">
<title>nid&#45;06</title>
<ellipse fill="none" stroke="blue" cx="396.92" cy="-102" rx="35.71" ry="28.99"/>
<text text-anchor="middle" x="396.92" y="-105.2" font-family="Times,serif" font-size="14.00">0x06</text>
<text text-anchor="middle" x="396.92" y="-88.7" font-family="Times,serif" font-size="14.00">Stereo</text>
</g>
<!-- nid&#45;06&#45;&gt;nid&#45;17&#45;in -->
<g id="edge14" class="edge">
<title>nid&#45;06&#45;&gt;nid&#45;17&#45;in</title>
<path fill="none" stroke="gray" stroke-dasharray="5,2" d="M432.43,-106.31C491.59,-113.68 614.19,-128.98 699.4,-139.61"/>
<polygon fill="gray" stroke="gray" points="698.76,-143.18 709.12,-140.95 699.63,-136.23 698.76,-143.18"/>
</g>
<!-- nid&#45;1e&#45;in -->
<g id="node28" class="node">
<title>nid&#45;1e&#45;in</title>
<polygon fill="none" stroke="green" points="872.09,-90 711.34,-90 711.34,-16 872.09,-16 872.09,-90"/>
<text text-anchor="middle" x="791.72" y="-72.7" font-family="Times,serif" font-size="14.00">0x1e</text>
<text text-anchor="middle" x="791.72" y="-56.2" font-family="Times,serif" font-size="14.00">[N/A] Speaker at Ext Rear</text>
<text text-anchor="middle" x="791.72" y="-39.7" font-family="Times,serif" font-size="14.00">Stereo</text>
<text text-anchor="middle" x="791.72" y="-23.2" font-family="Times,serif" font-size="14.00">OUT</text>
</g>
<!-- nid&#45;06&#45;&gt;nid&#45;1e&#45;in -->
<g id="edge19" class="edge">
<title>nid&#45;06&#45;&gt;nid&#45;1e&#45;in</title>
<path fill="none" stroke="#333333" d="M432.43,-97.69C491.77,-90.29 614.94,-74.93 700.17,-64.3"/>
<polygon fill="#333333" stroke="#333333" points="700.4,-67.67 709.89,-62.96 699.54,-60.72 700.4,-67.67"/>
</g>
<!-- nid&#45;07 -->
<g id="node6" class="node">
<title>nid&#45;07</title>
<ellipse fill="none" stroke="red" cx="1427.2" cy="-1325" rx="35.71" ry="28.99"/>
<text text-anchor="middle" x="1427.2" y="-1328.2" font-family="Times,serif" font-size="14.00">0x07</text>
<text text-anchor="middle" x="1427.2" y="-1311.7" font-family="Times,serif" font-size="14.00">Stereo</text>
</g>
<!-- nid&#45;07&#45;ampin -->
<g id="node7" class="node">
<title>nid&#45;07&#45;ampin</title>
<polygon fill="none" stroke="#c8c8c8" points="1161.25,-1325 1120.75,-1343 1120.75,-1307 1161.25,-1325"/>
</g>
<!-- nid&#45;07&#45;ampin&#45;&gt;nid&#45;07 -->
<g id="edge3" class="edge">
<title>nid&#45;07&#45;ampin&#45;&gt;nid&#45;07</title>
<path fill="none" stroke="#c8c8c8" d="M1162.36,-1325C1213.61,-1325 1324.96,-1325 1385.32,-1325"/>
<polygon fill="#c8c8c8" stroke="#c8c8c8" points="1385,-1326.75 1390,-1325 1385,-1323.25 1385,-1326.75"/>
</g>
<!-- nid&#45;24 -->
<g id="node8" class="node">
<title>nid&#45;24</title>
<polygon fill="none" stroke="black" points="844.08,-1366 760.79,-1366 739.36,-1284 822.65,-1284 844.08,-1366"/>
<text text-anchor="middle" x="791.72" y="-1328.2" font-family="Times,serif" font-size="14.00">0x24</text>
<text text-anchor="middle" x="791.72" y="-1311.7" font-family="Times,serif" font-size="14.00">Stereo</text>
</g>
<!-- nid&#45;24&#45;&gt;nid&#45;07&#45;ampin -->
<g id="edge4" class="edge">
<title>nid&#45;24&#45;&gt;nid&#45;07&#45;ampin</title>
<path fill="none" stroke="#333333" d="M833.8,-1325C905.8,-1325 1052.59,-1325 1109.74,-1325"/>
<polygon fill="#333333" stroke="#333333" points="1109.52,-1328.5 1119.52,-1325 1109.52,-1321.5 1109.52,-1328.5"/>
</g>
<!-- nid&#45;08 -->
<g id="node9" class="node">
<title>nid&#45;08</title>
<ellipse fill="none" stroke="red" cx="1714.61" cy="-762" rx="35.71" ry="28.99"/>
<text text-anchor="middle" x="1714.61" y="-765.2" font-family="Times,serif" font-size="14.00">0x08</text>
<text text-anchor="middle" x="1714.61" y="-748.7" font-family="Times,serif" font-size="14.00">Stereo</text>
</g>
<!-- nid&#45;08&#45;ampin -->
<g id="node10" class="node">
<title>nid&#45;08&#45;ampin</title>
<polygon fill="none" stroke="#3232f1" points="1454.2,-762 1413.7,-780 1413.7,-744 1454.2,-762"/>
</g>
<!-- nid&#45;08&#45;ampin&#45;&gt;nid&#45;08 -->
<g id="edge5" class="edge">
<title>nid&#45;08&#45;ampin&#45;&gt;nid&#45;08</title>
<path fill="none" stroke="#3232f1" d="M1455.3,-762C1505.62,-762 1613.7,-762 1672.86,-762"/>
<polygon fill="#3232f1" stroke="#3232f1" points="1672.78,-763.75 1677.78,-762 1672.77,-760.25 1672.78,-763.75"/>
</g>
<!-- nid&#45;23 -->
<g id="node11" class="node">
<title>nid&#45;23</title>
<polygon fill="none" stroke="black" points="1175.49,-762 1154.87,-795.48 1113.64,-795.48 1093.02,-762 1113.64,-728.52 1154.87,-728.52 1175.49,-762"/>
<text text-anchor="middle" x="1134.25" y="-765.2" font-family="Times,serif" font-size="14.00">0x23</text>
<text text-anchor="middle" x="1134.25" y="-748.7" font-family="Times,serif" font-size="14.00">Stereo</text>
</g>
<!-- nid&#45;23&#45;&gt;nid&#45;08&#45;ampin -->
<g id="edge6" class="edge">
<title>nid&#45;23&#45;&gt;nid&#45;08&#45;ampin</title>
<path fill="none" stroke="#333333" d="M1176.01,-762C1237.71,-762 1352.84,-762 1402.45,-762"/>
<polygon fill="#333333" stroke="#333333" points="1402.32,-765.5 1412.32,-762 1402.32,-758.5 1402.32,-765.5"/>
</g>
<!-- nid&#45;09 -->
<g id="node12" class="node">
<title>nid&#45;09</title>
<ellipse fill="none" stroke="red" cx="1714.61" cy="-1102" rx="35.71" ry="28.99"/>
<text text-anchor="middle" x="1714.61" y="-1105.2" font-family="Times,serif" font-size="14.00">0x09</text>
<text text-anchor="middle" x="1714.61" y="-1088.7" font-family="Times,serif" font-size="14.00">Stereo</text>
</g>
<!-- nid&#45;09&#45;ampin -->
<g id="node13" class="node">
<title>nid&#45;09&#45;ampin</title>
<polygon fill="none" stroke="#c8c8c8" points="1454.2,-1102 1413.7,-1120 1413.7,-1084 1454.2,-1102"/>
</g>
<!-- nid&#45;09&#45;ampin&#45;&gt;nid&#45;09 -->
<g id="edge7" class="edge">
<title>nid&#45;09&#45;ampin&#45;&gt;nid&#45;09</title>
<path fill="none" stroke="#c8c8c8" d="M1455.3,-1102C1505.62,-1102 1613.7,-1102 1672.86,-1102"/>
<polygon fill="#c8c8c8" stroke="#c8c8c8" points="1672.78,-1103.75 1677.78,-1102 1672.77,-1100.25 1672.78,-1103.75"/>
</g>
<!-- nid&#45;22 -->
<g id="node14" class="node">
<title>nid&#45;22</title>
<polygon fill="none" stroke="black" points="1175.49,-1102 1154.87,-1135.48 1113.64,-1135.48 1093.02,-1102 1113.64,-1068.52 1154.87,-1068.52 1175.49,-1102"/>
<text text-anchor="middle" x="1134.25" y="-1105.2" font-family="Times,serif" font-size="14.00">0x22</text>
<text text-anchor="middle" x="1134.25" y="-1088.7" font-family="Times,serif" font-size="14.00">Stereo</text>
</g>
<!-- nid&#45;22&#45;&gt;nid&#45;09&#45;ampin -->
<g id="edge8" class="edge">
<title>nid&#45;22&#45;&gt;nid&#45;09&#45;ampin</title>
<path fill="none" stroke="#333333" d="M1176.01,-1102C1237.71,-1102 1352.84,-1102 1402.45,-1102"/>
<polygon fill="#333333" stroke="#333333" points="1402.32,-1105.5 1412.32,-1102 1402.32,-1098.5 1402.32,-1105.5"/>
</g>
<!-- nid&#45;12&#45;out -->
<g id="node15" class="node">
<title>nid&#45;12&#45;out</title>
<polygon fill="none" stroke="green" points="467.54,-1168 326.29,-1168 326.29,-1094 467.54,-1094 467.54,-1168"/>
<text text-anchor="middle" x="396.92" y="-1150.7" font-family="Times,serif" font-size="14.00">0x12</text>
<text text-anchor="middle" x="396.92" y="-1134.2" font-family="Times,serif" font-size="14.00">[Fixed] Mic at Int N/A</text>
<text text-anchor="middle" x="396.92" y="-1117.7" font-family="Times,serif" font-size="14.00">Stereo</text>
<text text-anchor="middle" x="396.92" y="-1101.2" font-family="Times,serif" font-size="14.00">IN</text>
</g>
<!-- nid&#45;12&#45;out&#45;&gt;nid&#45;24 -->
<g id="edge42" class="edge">
<title>nid&#45;12&#45;out&#45;&gt;nid&#45;24</title>
<path fill="none" stroke="#333333" d="M467.69,-1165.46C543.6,-1202.95 663.49,-1262.16 733.89,-1296.93"/>
<polygon fill="#333333" stroke="#333333" points="731.97,-1300.38 742.48,-1301.67 735.07,-1294.1 731.97,-1300.38"/>
</g>
<!-- nid&#45;23&#45;ampin&#45;18 -->
<g id="node39" class="node">
<title>nid&#45;23&#45;ampin&#45;18</title>
<polygon fill="none" stroke="#0000ff" points="877.02,-896 749.07,-920.5 749.07,-871.5 877.02,-896"/>
<text text-anchor="middle" x="791.72" y="-890.95" font-family="Times,serif" font-size="14.00">4 (0x12)</text>
</g>
<!-- nid&#45;12&#45;out&#45;&gt;nid&#45;23&#45;ampin&#45;18 -->
<g id="edge41" class="edge">
<title>nid&#45;12&#45;out&#45;&gt;nid&#45;23&#45;ampin&#45;18</title>
<path fill="none" stroke="#333333" d="M457.34,-1093.53C470.89,-1084.88 485.18,-1075.68 498.42,-1067 588.1,-1008.19 603.43,-981.79 698.42,-932 711.16,-925.32 725.44,-919.16 738.88,-913.89"/>
<polygon fill="#333333" stroke="#333333" points="739.86,-916.88 747.96,-910.05 737.37,-910.34 739.86,-916.88"/>
</g>
<!-- nid&#45;13&#45;out -->
<g id="node16" class="node">
<title>nid&#45;13&#45;out</title>
<polygon fill="none" stroke="green" points="478.79,-1273 315.04,-1273 315.04,-1199 478.79,-1199 478.79,-1273"/>
<text text-anchor="middle" x="396.92" y="-1255.7" font-family="Times,serif" font-size="14.00">0x13</text>
<text text-anchor="middle" x="396.92" y="-1239.2" font-family="Times,serif" font-size="14.00">[N/A] Line Out at Ext N/A</text>
<text text-anchor="middle" x="396.92" y="-1222.7" font-family="Times,serif" font-size="14.00">Stereo</text>
<text text-anchor="middle" x="396.92" y="-1206.2" font-family="Times,serif" font-size="14.00">IN</text>
</g>
<!-- nid&#45;13&#45;out&#45;&gt;nid&#45;24 -->
<g id="edge43" class="edge">
<title>nid&#45;13&#45;out&#45;&gt;nid&#45;24</title>
<path fill="none" stroke="gray" stroke-dasharray="5,2" d="M478.83,-1254.33C555.84,-1271.78 669.6,-1297.56 736.34,-1312.68"/>
<polygon fill="gray" stroke="gray" points="735.5,-1316.3 746.03,-1315.1 737.05,-1309.48 735.5,-1316.3"/>
</g>
<!-- nid&#45;22&#45;ampin&#45;19 -->
<g id="node34" class="node">
<title>nid&#45;22&#45;ampin&#45;19</title>
<polygon fill="none" stroke="#c8c8c8" points="877.02,-1236 749.07,-1260.5 749.07,-1211.5 877.02,-1236"/>
<text text-anchor="middle" x="791.72" y="-1230.95" font-family="Times,serif" font-size="14.00">4 (0x13)</text>
</g>
<!-- nid&#45;13&#45;out&#45;&gt;nid&#45;22&#45;ampin&#45;19 -->
<g id="edge31" class="edge">
<title>nid&#45;13&#45;out&#45;&gt;nid&#45;22&#45;ampin&#45;19</title>
<path fill="none" stroke="#333333" d="M478.83,-1236C556.48,-1236 671.49,-1236 737.98,-1236"/>
<polygon fill="#333333" stroke="#333333" points="737.63,-1239.5 747.63,-1236 737.62,-1232.5 737.63,-1239.5"/>
</g>
<!-- nid&#45;18&#45;out -->
<g id="node20" class="node">
<title>nid&#45;18&#45;out</title>
<polygon fill="none" stroke="green" points="477.29,-1371 316.54,-1371 316.54,-1297 477.29,-1297 477.29,-1371"/>
<text text-anchor="middle" x="396.92" y="-1353.7" font-family="Times,serif" font-size="14.00">0x18</text>
<text text-anchor="middle" x="396.92" y="-1337.2" font-family="Times,serif" font-size="14.00">[N/A] Speaker at Ext Rear</text>
<text text-anchor="middle" x="396.92" y="-1320.7" font-family="Times,serif" font-size="14.00">Stereo</text>
<text text-anchor="middle" x="396.92" y="-1304.2" font-family="Times,serif" font-size="14.00">IN Detect</text>
</g>
<!-- nid&#45;18&#45;out&#45;&gt;nid&#45;24 -->
<g id="edge44" class="edge">
<title>nid&#45;18&#45;out&#45;&gt;nid&#45;24</title>
<path fill="none" stroke="gray" stroke-dasharray="5,2" d="M477.41,-1332.18C555.55,-1330.39 672.52,-1327.71 739.23,-1326.18"/>
<polygon fill="gray" stroke="gray" points="738.97,-1329.66 748.89,-1325.94 738.81,-1322.67 738.97,-1329.66"/>
</g>
<!-- nid&#45;19&#45;out -->
<g id="node21" class="node">
<title>nid&#45;19&#45;out</title>
<polygon fill="none" stroke="green" points="477.29,-669 316.54,-669 316.54,-595 477.29,-595 477.29,-669"/>
<text text-anchor="middle" x="396.92" y="-651.7" font-family="Times,serif" font-size="14.00">0x19</text>
<text text-anchor="middle" x="396.92" y="-635.2" font-family="Times,serif" font-size="14.00">[N/A] Speaker at Ext Rear</text>
<text text-anchor="middle" x="396.92" y="-618.7" font-family="Times,serif" font-size="14.00">Stereo</text>
<text text-anchor="middle" x="396.92" y="-602.2" font-family="Times,serif" font-size="14.00">IN Detect</text>
</g>
<!-- nid&#45;22&#45;ampin&#45;25 -->
<g id="node30" class="node">
<title>nid&#45;22&#45;ampin&#45;25</title>
<polygon fill="none" stroke="#c8c8c8" points="877.02,-968 749.07,-992.5 749.07,-943.5 877.02,-968"/>
<text text-anchor="middle" x="791.72" y="-962.95" font-family="Times,serif" font-size="14.00">0 (0x19)</text>
</g>
<!-- nid&#45;19&#45;out&#45;&gt;nid&#45;22&#45;ampin&#45;25 -->
<g id="edge27" class="edge">
<title>nid&#45;19&#45;out&#45;&gt;nid&#45;22&#45;ampin&#45;25</title>
<path fill="none" stroke="#333333" d="M476.47,-669.34C484.17,-674.19 491.64,-679.43 498.42,-685 607.56,-774.67 584.37,-848.67 698.42,-932 710.49,-940.82 725,-947.8 738.9,-953.17"/>
<polygon fill="#333333" stroke="#333333" points="737.29,-956.67 747.88,-956.8 739.68,-950.09 737.29,-956.67"/>
</g>
<!-- nid&#45;23&#45;ampin&#45;25 -->
<g id="node35" class="node">
<title>nid&#45;23&#45;ampin&#45;25</title>
<polygon fill="none" stroke="#c8c8c8" points="877.02,-628 749.07,-652.5 749.07,-603.5 877.02,-628"/>
<text text-anchor="middle" x="791.72" y="-622.95" font-family="Times,serif" font-size="14.00">0 (0x19)</text>
</g>
<!-- nid&#45;19&#45;out&#45;&gt;nid&#45;23&#45;ampin&#45;25 -->
<g id="edge37" class="edge">
<title>nid&#45;19&#45;out&#45;&gt;nid&#45;23&#45;ampin&#45;25</title>
<path fill="none" stroke="#333333" d="M477.41,-631.19C555.02,-630.4 670.94,-629.22 737.86,-628.54"/>
<polygon fill="#333333" stroke="#333333" points="737.61,-632.03 747.57,-628.43 737.53,-625.03 737.61,-632.03"/>
</g>
<!-- nid&#45;1a&#45;out -->
<g id="node22" class="node">
<title>nid&#45;1a&#45;out</title>
<polygon fill="none" stroke="green" points="477.29,-1055 316.54,-1055 316.54,-981 477.29,-981 477.29,-1055"/>
<text text-anchor="middle" x="396.92" y="-1037.7" font-family="Times,serif" font-size="14.00">0x1a</text>
<text text-anchor="middle" x="396.92" y="-1021.2" font-family="Times,serif" font-size="14.00">[N/A] Speaker at Ext Rear</text>
<text text-anchor="middle" x="396.92" y="-1004.7" font-family="Times,serif" font-size="14.00">Stereo</text>
<text text-anchor="middle" x="396.92" y="-988.2" font-family="Times,serif" font-size="14.00">IN Detect</text>
</g>
<!-- nid&#45;22&#45;ampin&#45;26 -->
<g id="node31" class="node">
<title>nid&#45;22&#45;ampin&#45;26</title>
<polygon fill="none" stroke="#c8c8c8" points="876,-1169 749.58,-1193.5 749.58,-1144.5 876,-1169"/>
<text text-anchor="middle" x="791.72" y="-1163.95" font-family="Times,serif" font-size="14.00">1 (0x1a)</text>
</g>
<!-- nid&#45;1a&#45;out&#45;&gt;nid&#45;22&#45;ampin&#45;26 -->
<g id="edge28" class="edge">
<title>nid&#45;1a&#45;out&#45;&gt;nid&#45;22&#45;ampin&#45;26</title>
<path fill="none" stroke="#333333" d="M477.7,-1050.1C538.11,-1074.22 623.24,-1107.81 698.42,-1136 711.62,-1140.95 725.95,-1146.16 739.29,-1150.93"/>
<polygon fill="#333333" stroke="#333333" points="737.67,-1154.43 748.27,-1154.49 740.02,-1147.83 737.67,-1154.43"/>
</g>
<!-- nid&#45;23&#45;ampin&#45;26 -->
<g id="node36" class="node">
<title>nid&#45;23&#45;ampin&#45;26</title>
<polygon fill="none" stroke="#c8c8c8" points="876,-829 749.58,-853.5 749.58,-804.5 876,-829"/>
<text text-anchor="middle" x="791.72" y="-823.95" font-family="Times,serif" font-size="14.00">1 (0x1a)</text>
</g>
<!-- nid&#45;1a&#45;out&#45;&gt;nid&#45;23&#45;ampin&#45;26 -->
<g id="edge38" class="edge">
<title>nid&#45;1a&#45;out&#45;&gt;nid&#45;23&#45;ampin&#45;26</title>
<path fill="none" stroke="#333333" d="M464.49,-980.65C524.63,-947.63 616.08,-899.24 698.42,-863 711.5,-857.24 725.89,-851.62 739.33,-846.65"/>
<polygon fill="#333333" stroke="#333333" points="740.19,-849.7 748.39,-842.99 737.8,-843.12 740.19,-849.7"/>
</g>
<!-- nid&#45;1b&#45;ampout -->
<g id="node24" class="node">
<title>nid&#45;1b&#45;ampout</title>
<polygon fill="none" stroke="#c8c8c8" points="1161.25,-249 1120.75,-267 1120.75,-231 1161.25,-249"/>
</g>
<!-- nid&#45;1b&#45;in&#45;&gt;nid&#45;1b&#45;ampout -->
<g id="edge15" class="edge">
<title>nid&#45;1b&#45;in&#45;&gt;nid&#45;1b&#45;ampout</title>
<path fill="none" stroke="#c8c8c8" d="M872.56,-249C952.35,-249 1069.48,-249 1114.59,-249"/>
<polygon fill="#c8c8c8" stroke="#c8c8c8" points="1114.47,-250.75 1119.47,-249 1114.47,-247.25 1114.47,-250.75"/>
</g>
<!-- nid&#45;1b&#45;out -->
<g id="node25" class="node">
<title>nid&#45;1b&#45;out</title>
<polygon fill="none" stroke="green" points="477.29,-928 316.54,-928 316.54,-854 477.29,-854 477.29,-928"/>
<text text-anchor="middle" x="396.92" y="-910.7" font-family="Times,serif" font-size="14.00">0x1b</text>
<text text-anchor="middle" x="396.92" y="-894.2" font-family="Times,serif" font-size="14.00">[N/A] Speaker at Ext Rear</text>
<text text-anchor="middle" x="396.92" y="-877.7" font-family="Times,serif" font-size="14.00">Stereo</text>
<text text-anchor="middle" x="396.92" y="-861.2" font-family="Times,serif" font-size="14.00">IN OUT EAPD Detect</text>
</g>
<!-- nid&#45;22&#45;ampin&#45;27 -->
<g id="node32" class="node">
<title>nid&#45;22&#45;ampin&#45;27</title>
<polygon fill="none" stroke="#c8c8c8" points="877.02,-1102 749.07,-1126.5 749.07,-1077.5 877.02,-1102"/>
<text text-anchor="middle" x="791.72" y="-1096.95" font-family="Times,serif" font-size="14.00">2 (0x1b)</text>
</g>
<!-- nid&#45;1b&#45;out&#45;&gt;nid&#45;22&#45;ampin&#45;27 -->
<g id="edge29" class="edge">
<title>nid&#45;1b&#45;out&#45;&gt;nid&#45;22&#45;ampin&#45;27</title>
<path fill="none" stroke="#333333" d="M453.75,-928.48C512.79,-967.05 609.5,-1027.24 698.42,-1069 711.18,-1075 725.36,-1080.57 738.69,-1085.36"/>
<polygon fill="#333333" stroke="#333333" points="737.09,-1088.86 747.68,-1088.87 739.41,-1082.26 737.09,-1088.86"/>
</g>
<!-- nid&#45;23&#45;ampin&#45;27 -->
<g id="node37" class="node">
<title>nid&#45;23&#45;ampin&#45;27</title>
<polygon fill="none" stroke="#c8c8c8" points="877.02,-762 749.07,-786.5 749.07,-737.5 877.02,-762"/>
<text text-anchor="middle" x="791.72" y="-756.95" font-family="Times,serif" font-size="14.00">2 (0x1b)</text>
</g>
<!-- nid&#45;1b&#45;out&#45;&gt;nid&#45;23&#45;ampin&#45;27 -->
<g id="edge39" class="edge">
<title>nid&#45;1b&#45;out&#45;&gt;nid&#45;23&#45;ampin&#45;27</title>
<path fill="none" stroke="#333333" d="M477.41,-864.89C555.18,-839.35 671.42,-801.18 738.28,-779.22"/>
<polygon fill="#333333" stroke="#333333" points="739.16,-782.29 747.57,-775.84 736.98,-775.64 739.16,-782.29"/>
</g>
<!-- nid&#45;1b&#45;ampin -->
<g id="node26" class="node">
<title>nid&#45;1b&#45;ampin</title>
<polygon fill="none" stroke="#0000ff" points="78.71,-891 38.21,-909 38.21,-873 78.71,-891"/>
</g>
<!-- nid&#45;1b&#45;ampin&#45;&gt;nid&#45;1b&#45;out -->
<g id="edge16" class="edge">
<title>nid&#45;1b&#45;ampin&#45;&gt;nid&#45;1b&#45;out</title>
<path fill="none" stroke="#0000ff" d="M79.93,-891C129.14,-891 234.83,-891 310.42,-891"/>
<polygon fill="#0000ff" stroke="#0000ff" points="310.27,-892.75 315.27,-891 310.27,-889.25 310.27,-892.75"/>
</g>
<!-- nid&#45;1d&#45;out -->
<g id="node27" class="node">
<title>nid&#45;1d&#45;out</title>
<polygon fill="none" stroke="green" points="490.42,-771 303.42,-771 303.42,-697 490.42,-697 490.42,-771"/>
<text text-anchor="middle" x="396.92" y="-753.7" font-family="Times,serif" font-size="14.00">0x1d</text>
<text text-anchor="middle" x="396.92" y="-737.2" font-family="Times,serif" font-size="14.00">[N/A] Modem Line at Ext N/A</text>
<text text-anchor="middle" x="396.92" y="-720.7" font-family="Times,serif" font-size="14.00">Mono</text>
<text text-anchor="middle" x="396.92" y="-704.2" font-family="Times,serif" font-size="14.00">IN</text>
</g>
<!-- nid&#45;22&#45;ampin&#45;29 -->
<g id="node33" class="node">
<title>nid&#45;22&#45;ampin&#45;29</title>
<polygon fill="none" stroke="#c8c8c8" points="877.02,-1035 749.07,-1059.5 749.07,-1010.5 877.02,-1035"/>
<text text-anchor="middle" x="791.72" y="-1029.95" font-family="Times,serif" font-size="14.00">3 (0x1d)</text>
</g>
<!-- nid&#45;1d&#45;out&#45;&gt;nid&#45;22&#45;ampin&#45;29 -->
<g id="edge30" class="edge">
<title>nid&#45;1d&#45;out&#45;&gt;nid&#45;22&#45;ampin&#45;29</title>
<path fill="none" stroke="#333333" d="M430.88,-771.48C482.71,-828.4 588.72,-936.87 698.42,-1002 710.78,-1009.34 725.03,-1015.43 738.58,-1020.29"/>
<polygon fill="#333333" stroke="#333333" points="737.17,-1023.85 747.76,-1023.77 739.43,-1017.23 737.17,-1023.85"/>
</g>
<!-- nid&#45;23&#45;ampin&#45;29 -->
<g id="node38" class="node">
<title>nid&#45;23&#45;ampin&#45;29</title>
<polygon fill="none" stroke="#c8c8c8" points="877.02,-695 749.07,-719.5 749.07,-670.5 877.02,-695"/>
<text text-anchor="middle" x="791.72" y="-689.95" font-family="Times,serif" font-size="14.00">3 (0x1d)</text>
</g>
<!-- nid&#45;1d&#45;out&#45;&gt;nid&#45;23&#45;ampin&#45;29 -->
<g id="edge40" class="edge">
<title>nid&#45;1d&#45;out&#45;&gt;nid&#45;23&#45;ampin&#45;29</title>
<path fill="none" stroke="#333333" d="M490.51,-724.81C567.54,-717.16 674.46,-706.54 737.73,-700.26"/>
<polygon fill="#333333" stroke="#333333" points="738.04,-703.65 747.64,-699.18 737.34,-696.68 738.04,-703.65"/>
</g>
<!-- nid&#45;22&#45;ampin&#45;25&#45;&gt;nid&#45;22 -->
<g id="edge22" class="edge">
<title>nid&#45;22&#45;ampin&#45;25&#45;&gt;nid&#45;22</title>
<path fill="none" stroke="#c8c8c8" d="M821.32,-978.96C838.57,-985.59 860.99,-994.24 880.84,-1002 956.93,-1031.75 1045.69,-1067.05 1095.08,-1086.75"/>
<polygon fill="#c8c8c8" stroke="#c8c8c8" points="1094.32,-1088.73 1099.62,-1088.96 1095.62,-1085.48 1094.32,-1088.73"/>
</g>
<!-- nid&#45;22&#45;ampin&#45;26&#45;&gt;nid&#45;22 -->
<g id="edge23" class="edge">
<title>nid&#45;22&#45;ampin&#45;26&#45;&gt;nid&#45;22</title>
<path fill="none" stroke="#c8c8c8" d="M835.16,-1160.65C900.75,-1147.74 1025.99,-1123.1 1091.29,-1110.26"/>
<polygon fill="#c8c8c8" stroke="#c8c8c8" points="1091.47,-1111.81 1096.04,-1109.13 1090.79,-1108.37 1091.47,-1111.81"/>
</g>
<!-- nid&#45;22&#45;ampin&#45;27&#45;&gt;nid&#45;22 -->
<g id="edge24" class="edge">
<title>nid&#45;22&#45;ampin&#45;27&#45;&gt;nid&#45;22</title>
<path fill="none" stroke="#c8c8c8" d="M879.53,-1102C945.37,-1102 1033.33,-1102 1086.5,-1102"/>
<polygon fill="#c8c8c8" stroke="#c8c8c8" points="1086.49,-1103.75 1091.49,-1102 1086.49,-1100.25 1086.49,-1103.75"/>
</g>
<!-- nid&#45;22&#45;ampin&#45;29&#45;&gt;nid&#45;22 -->
<g id="edge25" class="edge">
<title>nid&#45;22&#45;ampin&#45;29&#45;&gt;nid&#45;22</title>
<path fill="none" stroke="#c8c8c8" d="M835.5,-1043.42C901.14,-1056.33 1025.9,-1080.88 1091.13,-1093.71"/>
<polygon fill="#c8c8c8" stroke="#c8c8c8" points="1090.63,-1095.59 1095.87,-1094.84 1091.3,-1092.16 1090.63,-1095.59"/>
</g>
<!-- nid&#45;22&#45;ampin&#45;19&#45;&gt;nid&#45;22 -->
<g id="edge26" class="edge">
<title>nid&#45;22&#45;ampin&#45;19&#45;&gt;nid&#45;22</title>
<path fill="none" stroke="#c8c8c8" d="M822.16,-1225.16C839.31,-1218.8 861.34,-1210.55 880.84,-1203 957.13,-1173.46 1045.82,-1137.62 1095.15,-1117.56"/>
<polygon fill="#c8c8c8" stroke="#c8c8c8" points="1095.7,-1118.81 1099.67,-1115.31 1094.38,-1115.57 1095.7,-1118.81"/>
</g>
<!-- nid&#45;23&#45;ampin&#45;25&#45;&gt;nid&#45;23 -->
<g id="edge32" class="edge">
<title>nid&#45;23&#45;ampin&#45;25&#45;&gt;nid&#45;23</title>
<path fill="none" stroke="#c8c8c8" d="M821.32,-638.96C838.57,-645.59 860.99,-654.24 880.84,-662 956.93,-691.75 1045.69,-727.05 1095.08,-746.75"/>
<polygon fill="#c8c8c8" stroke="#c8c8c8" points="1094.32,-748.73 1099.62,-748.96 1095.62,-745.48 1094.32,-748.73"/>
</g>
<!-- nid&#45;23&#45;ampin&#45;26&#45;&gt;nid&#45;23 -->
<g id="edge33" class="edge">
<title>nid&#45;23&#45;ampin&#45;26&#45;&gt;nid&#45;23</title>
<path fill="none" stroke="#c8c8c8" d="M835.16,-820.65C900.75,-807.74 1025.99,-783.1 1091.29,-770.26"/>
<polygon fill="#c8c8c8" stroke="#c8c8c8" points="1091.47,-771.81 1096.04,-769.13 1090.79,-768.37 1091.47,-771.81"/>
</g>
<!-- nid&#45;23&#45;ampin&#45;27&#45;&gt;nid&#45;23 -->
<g id="edge34" class="edge">
<title>nid&#45;23&#45;ampin&#45;27&#45;&gt;nid&#45;23</title>
<path fill="none" stroke="#c8c8c8" d="M879.53,-762C945.37,-762 1033.33,-762 1086.5,-762"/>
<polygon fill="#c8c8c8" stroke="#c8c8c8" points="1086.49,-763.75 1091.49,-762 1086.49,-760.25 1086.49,-763.75"/>
</g>
<!-- nid&#45;23&#45;ampin&#45;29&#45;&gt;nid&#45;23 -->
<g id="edge35" class="edge">
<title>nid&#45;23&#45;ampin&#45;29&#45;&gt;nid&#45;23</title>
<path fill="none" stroke="#c8c8c8" d="M835.5,-703.42C901.14,-716.33 1025.9,-740.88 1091.13,-753.71"/>
<polygon fill="#c8c8c8" stroke="#c8c8c8" points="1090.63,-755.59 1095.87,-754.84 1091.3,-752.16 1090.63,-755.59"/>
</g>
<!-- nid&#45;23&#45;ampin&#45;18&#45;&gt;nid&#45;23 -->
<g id="edge36" class="edge">
<title>nid&#45;23&#45;ampin&#45;18&#45;&gt;nid&#45;23</title>
<path fill="none" stroke="#0000ff" d="M822.16,-885.16C839.31,-878.8 861.34,-870.55 880.84,-863 957.13,-833.46 1045.82,-797.62 1095.15,-777.56"/>
<polygon fill="#0000ff" stroke="#0000ff" points="1095.7,-778.81 1099.67,-775.31 1094.38,-775.57 1095.7,-778.81"/>
</g>
</g>
</svg>
